<svg width="87" height="79" viewBox="0 0 87 79" fill="none" xmlns="http://www.w3.org/2000/svg">
<path d="M62.3333 79V70.6667C62.3333 66.2464 60.5774 62.0072 57.4518 58.8816C54.3262 55.756 50.0869 54 45.6667 54H20.6667C16.2464 54 12.0072 55.756 8.88155 58.8816C5.75595 62.0072 4 66.2464 4 70.6667V79M74.8333 24.8333V49.8333M87.3333 37.3333H62.3333M49.8333 20.6667C49.8333 29.8714 42.3714 37.3333 33.1667 37.3333C23.9619 37.3333 16.5 29.8714 16.5 20.6667C16.5 11.4619 23.9619 4 33.1667 4C42.3714 4 49.8333 11.4619 49.8333 20.6667Z" stroke="black" stroke-opacity="0.04" stroke-width="7" stroke-linecap="round" stroke-linejoin="round"/>
</svg>
