<svg width="112" height="120" viewBox="0 0 112 120" fill="none" xmlns="http://www.w3.org/2000/svg">
<path d="M45.0016 60.0013L55.0016 70.0013L75.0016 50.0013M100.002 65.0013C100.002 90.0013 82.5016 102.501 61.7016 109.751C60.6124 110.12 59.4293 110.103 58.3516 109.701C37.5016 102.501 20.0016 90.0013 20.0016 65.0013V30.0013C20.0016 28.6752 20.5284 27.4034 21.4661 26.4657C22.4037 25.5281 23.6755 25.0013 25.0016 25.0013C35.0016 25.0013 47.5016 19.0013 56.2016 11.4013C57.2609 10.4963 58.6084 9.99902 60.0016 9.99902C61.3948 9.99902 62.7423 10.4963 63.8016 11.4013C72.5516 19.0513 85.0016 25.0013 95.0016 25.0013C96.3277 25.0013 97.5994 25.5281 98.5371 26.4657C99.4748 27.4034 100.002 28.6752 100.002 30.0013V65.0013Z" stroke="black" stroke-opacity="0.04" stroke-width="7" stroke-linecap="round" stroke-linejoin="round"/>
</svg>
