<svg width="91" height="84" viewBox="0 0 91 84" fill="none" xmlns="http://www.w3.org/2000/svg">
<path d="M52.5833 54L66.75 68.1667M52.5833 54V65.3333M52.5833 54H63.9167M38.4167 65.3333V54M38.4167 54H27.0833M38.4167 54L24.25 68.1667M52.5833 28.5V39.8333M52.5833 39.8333H63.9167M52.5833 39.8333L66.75 25.6667M38.4167 28.5V39.8333M38.4167 39.8333H27.0833M38.4167 39.8333L24.25 25.6667M3 76.1944V88M3 88H14.8056M3 88L17.1667 73.8333M73.8333 17.1667L88 3M88 3V14.8056M88 3H76.1944M76.1944 88H88M88 88V76.1944M88 88L73.8333 73.8333M17.1667 17.1667L3 3M3 3L14.8056 3M3 3L3 14.8056" stroke="black" stroke-opacity="0.04" stroke-width="6" stroke-linecap="round" stroke-linejoin="round"/>
</svg>
