<svg width="41" height="40" viewBox="0 0 41 40" fill="none" xmlns="http://www.w3.org/2000/svg">
<mask id="path-1-outside-1_592_68" maskUnits="userSpaceOnUse" x="-0.169434" y="-0.217081" width="41" height="40" fill="black">
<rect fill="white" x="-0.169434" y="-0.217081" width="41" height="40"/>
<path d="M20.5239 6.14768C22.1162 4.87655 24.0192 4.53969 25.6128 4.94553C27.1375 5.33414 28.4529 6.45771 28.7319 8.07737C29.6222 8.17634 30.4215 8.56627 30.9829 9.22678C31.5499 9.89405 31.7978 10.7471 31.7104 11.6516C32.5398 11.9699 33.206 12.6118 33.5884 13.5071C33.8526 14.1259 33.971 14.8369 33.9448 15.6145H34.438C34.9019 15.6145 35.3129 15.9243 35.4136 16.3772C35.654 17.4602 35.7817 18.5862 35.7817 19.7414C35.7817 28.288 28.8527 35.2168 20.3062 35.217C11.7594 35.217 4.83064 28.2882 4.83057 19.7414C4.83061 18.5861 4.9583 17.4602 5.19873 16.3772C5.29943 15.9244 5.70948 15.6146 6.17334 15.6145H6.3501C6.45559 15.1947 6.60811 14.7878 6.83057 14.427C7.13159 13.939 7.56639 13.5216 8.16064 13.2795C7.98606 12.656 8.02515 12.0003 8.21338 11.4094C8.5918 10.2223 9.61155 9.13745 11.064 8.80588C11.2706 7.73322 11.7741 6.86428 12.4897 6.21506C13.3725 5.41444 14.505 5.00999 15.6138 4.88108C16.7242 4.75212 17.8782 4.89002 18.8765 5.24338C19.465 5.45179 20.0404 5.75115 20.5239 6.14768Z"/>
</mask>
<path d="M20.5239 6.14768C22.1162 4.87655 24.0192 4.53969 25.6128 4.94553C27.1375 5.33414 28.4529 6.45771 28.7319 8.07737C29.6222 8.17634 30.4215 8.56627 30.9829 9.22678C31.5499 9.89405 31.7978 10.7471 31.7104 11.6516C32.5398 11.9699 33.206 12.6118 33.5884 13.5071C33.8526 14.1259 33.971 14.8369 33.9448 15.6145H34.438C34.9019 15.6145 35.3129 15.9243 35.4136 16.3772C35.654 17.4602 35.7817 18.5862 35.7817 19.7414C35.7817 28.288 28.8527 35.2168 20.3062 35.217C11.7594 35.217 4.83064 28.2882 4.83057 19.7414C4.83061 18.5861 4.9583 17.4602 5.19873 16.3772C5.29943 15.9244 5.70948 15.6146 6.17334 15.6145H6.3501C6.45559 15.1947 6.60811 14.7878 6.83057 14.427C7.13159 13.939 7.56639 13.5216 8.16064 13.2795C7.98606 12.656 8.02515 12.0003 8.21338 11.4094C8.5918 10.2223 9.61155 9.13745 11.064 8.80588C11.2706 7.73322 11.7741 6.86428 12.4897 6.21506C13.3725 5.41444 14.505 5.00999 15.6138 4.88108C16.7242 4.75212 17.8782 4.89002 18.8765 5.24338C19.465 5.45179 20.0404 5.75115 20.5239 6.14768Z" fill="black"/>
<path d="M20.5239 6.14768L17.6289 9.67759L20.4852 12.0201L23.3721 9.71546L20.5239 6.14768ZM25.6128 4.94553L26.7403 0.521744L26.7395 0.521534L25.6128 4.94553ZM28.7319 8.07737L24.233 8.85254L24.8159 12.2354L28.2276 12.6146L28.7319 8.07737ZM30.9829 9.22678L34.4619 6.27083L34.4613 6.27008L30.9829 9.22678ZM31.7104 11.6516L27.1664 11.2129L26.8327 14.6693L30.0746 15.9136L31.7104 11.6516ZM33.5884 13.5071L37.7869 11.7145L37.7866 11.7138L33.5884 13.5071ZM33.9448 15.6145L29.3822 15.4611L29.2235 20.1797H33.9448V15.6145ZM35.4136 16.3772L39.8703 15.3878L39.8699 15.386L35.4136 16.3772ZM35.7817 19.7414L40.347 19.7415L40.347 19.7413L35.7817 19.7414ZM20.3062 35.217L20.3061 39.7822H20.3063L20.3062 35.217ZM4.83057 19.7414L0.265348 19.7413V19.7415L4.83057 19.7414ZM5.19873 16.3772L0.742397 15.3861L0.742013 15.3878L5.19873 16.3772ZM6.17334 15.6145V11.0493L6.17241 11.0493L6.17334 15.6145ZM6.3501 15.6145V20.1797H9.91003L10.7777 16.7271L6.3501 15.6145ZM6.83057 14.427L2.94513 12.0302L2.94441 12.0314L6.83057 14.427ZM8.16064 13.2795L9.88312 17.5073L13.655 15.9706L12.5568 12.0486L8.16064 13.2795ZM8.21338 11.4094L3.86381 10.0229L3.86351 10.0238L8.21338 11.4094ZM11.064 8.80588L12.08 13.2566L14.9834 12.5938L15.5467 9.66952L11.064 8.80588ZM12.4897 6.21506L9.42275 2.83353L9.42231 2.83393L12.4897 6.21506ZM15.6138 4.88108L15.0871 0.346342L15.0866 0.346406L15.6138 4.88108ZM18.8765 5.24338L20.4003 0.93999L20.3999 0.939847L18.8765 5.24338ZM20.5239 6.14768L23.3721 9.71546C23.8707 9.31746 24.3079 9.32416 24.4861 9.36953L25.6128 4.94553L26.7395 0.521534C23.7305 -0.244787 20.3617 0.435651 17.6757 2.57991L20.5239 6.14768ZM25.6128 4.94553L24.4853 9.36932C24.5507 9.38599 24.541 9.40367 24.4786 9.34375C24.4427 9.30934 24.3904 9.24902 24.3403 9.158C24.2888 9.06417 24.2512 8.95821 24.233 8.85254L28.7319 8.07737L33.2309 7.3022C32.5755 3.49842 29.5684 1.24256 26.7403 0.521744L25.6128 4.94553ZM28.7319 8.07737L28.2276 12.6146C28.1024 12.6007 27.7839 12.5122 27.5045 12.1835L30.9829 9.22678L34.4613 6.27008C33.059 4.62035 31.142 3.75194 29.2363 3.5401L28.7319 8.07737ZM30.9829 9.22678L27.5039 12.1827C27.3723 12.0279 27.2733 11.8433 27.2165 11.6524C27.1607 11.4649 27.1569 11.3109 27.1664 11.2129L31.7104 11.6516L36.2545 12.0903C36.451 10.0556 35.8905 7.95217 34.4619 6.27083L30.9829 9.22678ZM31.7104 11.6516L30.0746 15.9136C29.9058 15.8489 29.7478 15.7473 29.619 15.6209C29.491 15.4952 29.4221 15.3751 29.3901 15.3003L33.5884 13.5071L37.7866 11.7138C36.9436 9.74026 35.3855 8.17221 33.3463 7.38954L31.7104 11.6516ZM33.5884 13.5071L29.3898 15.2996C29.3494 15.205 29.3898 15.2339 29.3822 15.4611L33.9448 15.6145L38.5075 15.7679C38.5521 14.4398 38.3558 13.0469 37.7869 11.7145L33.5884 13.5071ZM33.9448 15.6145V20.1797H34.438V15.6145V11.0493H33.9448V15.6145ZM34.438 15.6145V20.1797C32.9011 20.1797 31.3504 19.1361 30.9572 17.3683L35.4136 16.3772L39.8699 15.386C39.2753 12.7125 36.9028 11.0493 34.438 11.0493V15.6145ZM35.4136 16.3772L30.9568 17.3665C31.1262 18.1292 31.2165 18.9236 31.2165 19.7416L35.7817 19.7414L40.347 19.7413C40.3469 18.2487 40.1818 16.7911 39.8703 15.3878L35.4136 16.3772ZM35.7817 19.7414L31.2165 19.7414C31.2165 25.7666 26.3315 30.6516 20.306 30.6518L20.3062 35.217L20.3063 39.7822C31.374 39.7819 40.3469 30.8094 40.347 19.7415L35.7817 19.7414ZM20.3062 35.217L20.3062 30.6518C14.2807 30.6518 9.39584 25.7669 9.39578 19.7414L4.83057 19.7414L0.265348 19.7415C0.265443 30.8094 9.23807 39.7822 20.3061 39.7822L20.3062 35.217ZM4.83057 19.7414L9.39578 19.7416C9.39581 18.9235 9.48614 18.1292 9.65545 17.3666L5.19873 16.3772L0.742013 15.3878C0.430467 16.7912 0.2654 18.2487 0.265348 19.7413L4.83057 19.7414ZM5.19873 16.3772L9.65506 17.3683C9.26282 19.1319 7.71517 20.1794 6.17427 20.1797L6.17334 15.6145L6.17241 11.0493C3.70379 11.0498 1.33604 12.7169 0.742398 15.3861L5.19873 16.3772ZM6.17334 15.6145V20.1797H6.3501V15.6145V11.0493H6.17334V15.6145ZM6.3501 15.6145L10.7777 16.7271C10.7891 16.6814 10.7951 16.6692 10.7895 16.6832C10.7838 16.6976 10.7625 16.7483 10.7167 16.8226L6.83057 14.427L2.94441 12.0314C2.41263 12.894 2.10751 13.7658 1.92254 14.5018L6.3501 15.6145ZM6.83057 14.427L10.716 16.8238C10.5882 17.0309 10.3169 17.3306 9.88312 17.5073L8.16064 13.2795L6.43817 9.05172C4.81586 9.71267 3.67493 10.8471 2.94513 12.0302L6.83057 14.427ZM8.16064 13.2795L12.5568 12.0486C12.6534 12.3937 12.6084 12.6534 12.5632 12.795L8.21338 11.4094L3.86351 10.0238C3.44194 11.3472 3.31872 12.9184 3.76451 14.5105L8.16064 13.2795ZM8.21338 11.4094L12.5629 12.7959C12.5184 12.9357 12.4538 13.0265 12.3854 13.0917C12.3052 13.1681 12.1959 13.2301 12.08 13.2566L11.064 8.80588L10.0479 4.35517C6.89932 5.07394 4.69399 7.41858 3.86381 10.0229L8.21338 11.4094ZM11.064 8.80588L15.5467 9.66952C15.5548 9.6276 15.5631 9.60166 15.5677 9.58875C15.5723 9.57596 15.5747 9.57231 15.5732 9.57509C15.5716 9.57789 15.5685 9.58291 15.564 9.58848C15.5596 9.59396 15.5567 9.59659 15.5572 9.5962L12.4897 6.21506L9.42231 2.83393C7.95849 4.16194 6.97051 5.92138 6.58118 7.94225L11.064 8.80588ZM12.4897 6.21506L15.5567 9.5966C15.5586 9.59488 15.594 9.56297 15.6931 9.5225C15.7962 9.48039 15.9469 9.43832 16.141 9.41575L15.6138 4.88108L15.0866 0.346406C13.2904 0.555234 11.1822 1.23775 9.42275 2.83353L12.4897 6.21506ZM15.6138 4.88108L16.1404 9.41582C16.5559 9.36757 17.0088 9.42506 17.3531 9.54692L18.8765 5.24338L20.3999 0.939847C18.7476 0.35497 16.8925 0.136668 15.0871 0.346342L15.6138 4.88108ZM18.8765 5.24338L17.3526 9.54678C17.4423 9.57851 17.5139 9.61135 17.5658 9.63944C17.6181 9.66777 17.6363 9.68366 17.6289 9.67759L20.5239 6.14768L23.4189 2.61777C22.4479 1.82143 21.3813 1.28738 20.4003 0.93999L18.8765 5.24338Z" fill="url(#paint0_linear_592_68)" mask="url(#path-1-outside-1_592_68)"/>
<mask id="path-3-outside-2_592_68" maskUnits="userSpaceOnUse" x="1.83057" y="1.78284" width="37" height="36" fill="black">
<rect fill="white" x="1.83057" y="1.78284" width="37" height="36"/>
<path d="M19.5327 15.6153C19.6103 15.2077 19.7423 14.8239 19.8618 14.4747C20.0171 13.9578 20.0464 13.6252 20.0171 13.3272C19.9855 13.0077 19.8809 12.6544 19.6587 12.0812C19.3216 11.2359 19.1368 10.5001 19.1187 9.71787C19.1045 9.10593 19.1955 8.50767 19.3442 7.86045C19.0887 7.61272 18.7025 7.37112 18.187 7.18858C17.4839 6.93975 16.6469 6.83829 15.8511 6.93076C15.054 7.02348 14.3624 7.30171 13.8755 7.74326C13.5978 7.99523 13.3635 8.32343 13.2104 8.75205C14.3854 8.86151 15.2784 9.14717 16.0034 9.63194C16.9332 10.2539 17.4651 11.1408 17.9507 11.8995C18.2575 12.3793 18.1178 13.0171 17.6382 13.3243C17.1883 13.612 16.5988 13.5074 16.2739 13.0978L16.2134 13.0118L15.8413 12.4396C15.5013 11.9307 15.234 11.6001 14.8569 11.3478C14.3805 11.0292 13.6005 10.7638 11.9937 10.7638C11.0327 10.7639 10.3874 11.3798 10.1782 12.0362C10.0742 12.3629 10.0977 12.6418 10.1812 12.8302C10.2535 12.9929 10.4066 13.1743 10.771 13.2814C11.3174 13.4418 11.6303 14.0151 11.4702 14.5616C11.3099 15.1078 10.7373 15.4214 10.1909 15.2618L10.1899 15.2608V15.2618C10.1885 15.2613 10.1865 15.2603 10.1851 15.2599C9.56694 15.0799 9.20462 15.106 9.00732 15.1651C8.8346 15.2171 8.70377 15.318 8.58545 15.5099C8.56493 15.5432 8.54557 15.5785 8.52686 15.6153H19.5327ZM30.2837 19.7423C29.8591 19.7427 29.5141 20.0851 29.5103 20.5089C29.5103 20.5074 29.5102 20.5053 29.5103 20.504L29.5015 20.5548C29.49 20.6089 29.4678 20.6761 29.4292 20.7374C29.3817 20.8126 29.239 21.0089 28.688 21.0089C28.2547 21.0087 28.154 20.85 28.1157 20.7843C28.0823 20.7266 28.0619 20.6604 28.0513 20.6056L28.0435 20.5548C28.0392 20.1311 27.6937 19.7882 27.269 19.7882C26.8422 19.7887 26.4958 20.1357 26.4956 20.5626H27.269L26.4956 20.5636V20.5802C26.4958 20.5873 26.4962 20.5971 26.4966 20.6065C26.4973 20.6258 26.4991 20.6507 26.5015 20.6788C26.5062 20.7359 26.5147 20.8125 26.5317 20.9005C26.5654 21.0741 26.6345 21.3149 26.7778 21.5616C26.9957 21.9362 27.3532 22.2662 27.8745 22.4356C27.6892 23.9789 26.8526 25.1591 25.6284 25.9991C24.2137 26.9697 22.2812 27.4799 20.3062 27.4796C18.3311 27.4791 16.3978 26.9681 14.9829 25.9972C13.7631 25.1598 12.927 23.985 12.7378 22.4513C13.3218 22.2901 13.7247 21.9575 13.9741 21.5616C14.1347 21.3067 14.2129 21.0564 14.2515 20.8731C14.2709 20.7807 14.2812 20.7001 14.2866 20.6397C14.2893 20.6098 14.2906 20.5832 14.2915 20.5626C14.2919 20.5526 14.2923 20.5429 14.2925 20.5353V20.5157C14.2923 20.0886 13.9462 19.7424 13.519 19.7423C13.0983 19.7426 12.7556 20.0787 12.7456 20.4972C12.7453 20.4979 12.7448 20.4995 12.7446 20.5011C12.7438 20.5102 12.7421 20.5297 12.7368 20.5548C12.7254 20.609 12.7031 20.6761 12.6646 20.7374C12.6172 20.8125 12.4744 21.0088 11.9233 21.0089C11.4903 21.0088 11.3894 20.8501 11.3511 20.7843C11.3176 20.7266 11.2973 20.6604 11.2866 20.6056C11.2817 20.5803 11.2787 20.5605 11.2778 20.5509V20.5548C11.2736 20.1311 10.9291 19.7882 10.5044 19.7882C10.0774 19.7885 9.73113 20.1356 9.73096 20.5626H10.5044L9.73096 20.5636V20.5802C9.7311 20.5873 9.73156 20.5971 9.73193 20.6065C9.73269 20.6258 9.73352 20.6507 9.73584 20.6788C9.7406 20.7359 9.75006 20.8125 9.76709 20.9005C9.80078 21.0741 9.86992 21.315 10.0132 21.5616C10.2412 21.9537 10.6223 22.2958 11.1841 22.4571C11.386 24.5691 12.5212 26.1839 14.1069 27.2726C15.8346 28.4582 18.0919 29.0269 20.3052 29.0274C22.5185 29.0279 24.7755 28.46 26.5034 27.2745C28.0862 26.1884 29.2187 24.5783 29.4243 22.4718C30.0509 22.3197 30.4783 21.975 30.7388 21.5616C30.8993 21.3067 30.9776 21.0564 31.0161 20.8731C31.0355 20.7807 31.0458 20.7001 31.0513 20.6397C31.054 20.6098 31.0553 20.5832 31.0562 20.5626C31.0566 20.5526 31.057 20.5429 31.0571 20.5353V20.5167C31.0488 20.5163 30.9723 20.5157 30.2837 20.5157H31.0571C31.0569 20.0886 30.7109 19.7423 30.2837 19.7423ZM16.6948 17.6788C15.8405 17.6793 15.148 18.7185 15.1479 20.0001C15.1481 21.2816 15.8406 22.3209 16.6948 22.3214C17.5494 22.3214 18.2425 21.2819 18.2427 20.0001C18.2426 18.7181 17.5495 17.6788 16.6948 17.6788ZM23.9165 17.6788C23.062 17.6791 22.3687 18.7183 22.3687 20.0001C22.3688 21.2817 23.0621 22.3211 23.9165 22.3214C24.7711 22.3214 25.4642 21.2819 25.4644 20.0001C25.4643 18.7181 24.7712 17.6788 23.9165 17.6788ZM31.8774 15.6153C31.9047 15.0642 31.8241 14.6317 31.6899 14.3175C31.4519 13.7603 31.0249 13.4874 30.4517 13.4874C30.1072 13.4873 29.7846 13.3148 29.5933 13.0284C29.4023 12.742 29.3668 12.3786 29.4985 12.0606C29.8001 11.3342 29.6457 10.8405 29.4097 10.5626C29.1582 10.2672 28.6506 10.0234 27.8931 10.1456C27.1127 10.2716 26.2292 10.5469 25.5171 10.8038C25.1666 10.9303 24.8676 11.0488 24.6577 11.1349C24.5532 11.1777 24.4706 11.2128 24.4155 11.2364C24.3883 11.2481 24.3673 11.257 24.354 11.2628C24.3475 11.2657 24.3422 11.2684 24.3394 11.2696C24.3381 11.2701 24.3369 11.2704 24.3364 11.2706C23.8162 11.502 23.206 11.2682 22.9741 10.7481C22.7426 10.2278 22.9774 9.61768 23.4976 9.38584L23.4985 9.38487L23.5005 9.38389C23.5019 9.38328 23.5042 9.38282 23.5063 9.38194C23.5113 9.37977 23.5182 9.37597 23.5269 9.37217C23.5445 9.36447 23.57 9.35368 23.6021 9.33994C23.6664 9.31232 23.7597 9.27316 23.8755 9.22569C24.1069 9.13078 24.4336 9.00169 24.8169 8.86338C25.3398 8.67473 25.9904 8.46152 26.6616 8.296C26.489 7.65607 25.9424 7.15832 25.103 6.94444C24.035 6.67248 22.594 6.93349 21.4019 8.12901C21.2417 8.78289 21.1723 9.24492 21.1821 9.67002C21.1916 10.0758 21.2727 10.4996 21.479 11.0655L21.5757 11.3175L21.5786 11.3263C21.8147 11.9345 22.0099 12.5082 22.0708 13.1241C22.1338 13.762 22.0481 14.3753 21.8364 15.0772C21.8329 15.0889 21.8287 15.1008 21.8247 15.1124C21.7568 15.311 21.7027 15.4754 21.6597 15.6153H31.8774ZM34.438 15.6153C34.9021 15.6153 35.313 15.925 35.4136 16.378C35.6539 17.461 35.7817 18.587 35.7817 19.7423C35.7814 28.2887 28.8526 35.2176 20.3062 35.2179C11.7596 35.2179 4.83088 28.2888 4.83057 19.7423C4.83058 18.587 4.95834 17.461 5.19873 16.378C5.2993 15.9251 5.70936 15.6154 6.17334 15.6153H6.34814C6.45361 15.1952 6.60691 14.7881 6.82959 14.4269C7.13058 13.9389 7.56545 13.5215 8.15967 13.2794C7.98514 12.6559 8.02417 12.0002 8.2124 11.4093C8.59079 10.2222 9.61066 9.13739 11.063 8.80576C11.2696 7.73315 11.7732 6.86415 12.4888 6.21494C13.3715 5.41427 14.504 5.00991 15.6128 4.88096C16.7232 4.75193 17.8772 4.88994 18.8755 5.24326C19.4641 5.45164 20.0394 5.75105 20.5229 6.14756C22.1152 4.87639 24.0182 4.53968 25.6118 4.94541C27.1366 5.33392 28.4518 6.45755 28.731 8.07725C29.6213 8.17614 30.4204 8.5662 30.9819 9.22666C31.549 9.89395 31.7968 10.7469 31.7095 11.6515C32.5389 11.9697 33.2049 12.6117 33.5874 13.5069C33.8518 14.1261 33.9702 14.8373 33.9438 15.6153H34.438Z"/>
</mask>
<path d="M19.5327 15.6153C19.6103 15.2077 19.7423 14.8239 19.8618 14.4747C20.0171 13.9578 20.0464 13.6252 20.0171 13.3272C19.9855 13.0077 19.8809 12.6544 19.6587 12.0812C19.3216 11.2359 19.1368 10.5001 19.1187 9.71787C19.1045 9.10593 19.1955 8.50767 19.3442 7.86045C19.0887 7.61272 18.7025 7.37112 18.187 7.18858C17.4839 6.93975 16.6469 6.83829 15.8511 6.93076C15.054 7.02348 14.3624 7.30171 13.8755 7.74326C13.5978 7.99523 13.3635 8.32343 13.2104 8.75205C14.3854 8.86151 15.2784 9.14717 16.0034 9.63194C16.9332 10.2539 17.4651 11.1408 17.9507 11.8995C18.2575 12.3793 18.1178 13.0171 17.6382 13.3243C17.1883 13.612 16.5988 13.5074 16.2739 13.0978L16.2134 13.0118L15.8413 12.4396C15.5013 11.9307 15.234 11.6001 14.8569 11.3478C14.3805 11.0292 13.6005 10.7638 11.9937 10.7638C11.0327 10.7639 10.3874 11.3798 10.1782 12.0362C10.0742 12.3629 10.0977 12.6418 10.1812 12.8302C10.2535 12.9929 10.4066 13.1743 10.771 13.2814C11.3174 13.4418 11.6303 14.0151 11.4702 14.5616C11.3099 15.1078 10.7373 15.4214 10.1909 15.2618L10.1899 15.2608V15.2618C10.1885 15.2613 10.1865 15.2603 10.1851 15.2599C9.56694 15.0799 9.20462 15.106 9.00732 15.1651C8.8346 15.2171 8.70377 15.318 8.58545 15.5099C8.56493 15.5432 8.54557 15.5785 8.52686 15.6153H19.5327ZM30.2837 19.7423C29.8591 19.7427 29.5141 20.0851 29.5103 20.5089C29.5103 20.5074 29.5102 20.5053 29.5103 20.504L29.5015 20.5548C29.49 20.6089 29.4678 20.6761 29.4292 20.7374C29.3817 20.8126 29.239 21.0089 28.688 21.0089C28.2547 21.0087 28.154 20.85 28.1157 20.7843C28.0823 20.7266 28.0619 20.6604 28.0513 20.6056L28.0435 20.5548C28.0392 20.1311 27.6937 19.7882 27.269 19.7882C26.8422 19.7887 26.4958 20.1357 26.4956 20.5626H27.269L26.4956 20.5636V20.5802C26.4958 20.5873 26.4962 20.5971 26.4966 20.6065C26.4973 20.6258 26.4991 20.6507 26.5015 20.6788C26.5062 20.7359 26.5147 20.8125 26.5317 20.9005C26.5654 21.0741 26.6345 21.3149 26.7778 21.5616C26.9957 21.9362 27.3532 22.2662 27.8745 22.4356C27.6892 23.9789 26.8526 25.1591 25.6284 25.9991C24.2137 26.9697 22.2812 27.4799 20.3062 27.4796C18.3311 27.4791 16.3978 26.9681 14.9829 25.9972C13.7631 25.1598 12.927 23.985 12.7378 22.4513C13.3218 22.2901 13.7247 21.9575 13.9741 21.5616C14.1347 21.3067 14.2129 21.0564 14.2515 20.8731C14.2709 20.7807 14.2812 20.7001 14.2866 20.6397C14.2893 20.6098 14.2906 20.5832 14.2915 20.5626C14.2919 20.5526 14.2923 20.5429 14.2925 20.5353V20.5157C14.2923 20.0886 13.9462 19.7424 13.519 19.7423C13.0983 19.7426 12.7556 20.0787 12.7456 20.4972C12.7453 20.4979 12.7448 20.4995 12.7446 20.5011C12.7438 20.5102 12.7421 20.5297 12.7368 20.5548C12.7254 20.609 12.7031 20.6761 12.6646 20.7374C12.6172 20.8125 12.4744 21.0088 11.9233 21.0089C11.4903 21.0088 11.3894 20.8501 11.3511 20.7843C11.3176 20.7266 11.2973 20.6604 11.2866 20.6056C11.2817 20.5803 11.2787 20.5605 11.2778 20.5509V20.5548C11.2736 20.1311 10.9291 19.7882 10.5044 19.7882C10.0774 19.7885 9.73113 20.1356 9.73096 20.5626H10.5044L9.73096 20.5636V20.5802C9.7311 20.5873 9.73156 20.5971 9.73193 20.6065C9.73269 20.6258 9.73352 20.6507 9.73584 20.6788C9.7406 20.7359 9.75006 20.8125 9.76709 20.9005C9.80078 21.0741 9.86992 21.315 10.0132 21.5616C10.2412 21.9537 10.6223 22.2958 11.1841 22.4571C11.386 24.5691 12.5212 26.1839 14.1069 27.2726C15.8346 28.4582 18.0919 29.0269 20.3052 29.0274C22.5185 29.0279 24.7755 28.46 26.5034 27.2745C28.0862 26.1884 29.2187 24.5783 29.4243 22.4718C30.0509 22.3197 30.4783 21.975 30.7388 21.5616C30.8993 21.3067 30.9776 21.0564 31.0161 20.8731C31.0355 20.7807 31.0458 20.7001 31.0513 20.6397C31.054 20.6098 31.0553 20.5832 31.0562 20.5626C31.0566 20.5526 31.057 20.5429 31.0571 20.5353V20.5167C31.0488 20.5163 30.9723 20.5157 30.2837 20.5157H31.0571C31.0569 20.0886 30.7109 19.7423 30.2837 19.7423ZM16.6948 17.6788C15.8405 17.6793 15.148 18.7185 15.1479 20.0001C15.1481 21.2816 15.8406 22.3209 16.6948 22.3214C17.5494 22.3214 18.2425 21.2819 18.2427 20.0001C18.2426 18.7181 17.5495 17.6788 16.6948 17.6788ZM23.9165 17.6788C23.062 17.6791 22.3687 18.7183 22.3687 20.0001C22.3688 21.2817 23.0621 22.3211 23.9165 22.3214C24.7711 22.3214 25.4642 21.2819 25.4644 20.0001C25.4643 18.7181 24.7712 17.6788 23.9165 17.6788ZM31.8774 15.6153C31.9047 15.0642 31.8241 14.6317 31.6899 14.3175C31.4519 13.7603 31.0249 13.4874 30.4517 13.4874C30.1072 13.4873 29.7846 13.3148 29.5933 13.0284C29.4023 12.742 29.3668 12.3786 29.4985 12.0606C29.8001 11.3342 29.6457 10.8405 29.4097 10.5626C29.1582 10.2672 28.6506 10.0234 27.8931 10.1456C27.1127 10.2716 26.2292 10.5469 25.5171 10.8038C25.1666 10.9303 24.8676 11.0488 24.6577 11.1349C24.5532 11.1777 24.4706 11.2128 24.4155 11.2364C24.3883 11.2481 24.3673 11.257 24.354 11.2628C24.3475 11.2657 24.3422 11.2684 24.3394 11.2696C24.3381 11.2701 24.3369 11.2704 24.3364 11.2706C23.8162 11.502 23.206 11.2682 22.9741 10.7481C22.7426 10.2278 22.9774 9.61768 23.4976 9.38584L23.4985 9.38487L23.5005 9.38389C23.5019 9.38328 23.5042 9.38282 23.5063 9.38194C23.5113 9.37977 23.5182 9.37597 23.5269 9.37217C23.5445 9.36447 23.57 9.35368 23.6021 9.33994C23.6664 9.31232 23.7597 9.27316 23.8755 9.22569C24.1069 9.13078 24.4336 9.00169 24.8169 8.86338C25.3398 8.67473 25.9904 8.46152 26.6616 8.296C26.489 7.65607 25.9424 7.15832 25.103 6.94444C24.035 6.67248 22.594 6.93349 21.4019 8.12901C21.2417 8.78289 21.1723 9.24492 21.1821 9.67002C21.1916 10.0758 21.2727 10.4996 21.479 11.0655L21.5757 11.3175L21.5786 11.3263C21.8147 11.9345 22.0099 12.5082 22.0708 13.1241C22.1338 13.762 22.0481 14.3753 21.8364 15.0772C21.8329 15.0889 21.8287 15.1008 21.8247 15.1124C21.7568 15.311 21.7027 15.4754 21.6597 15.6153H31.8774ZM34.438 15.6153C34.9021 15.6153 35.313 15.925 35.4136 16.378C35.6539 17.461 35.7817 18.587 35.7817 19.7423C35.7814 28.2887 28.8526 35.2176 20.3062 35.2179C11.7596 35.2179 4.83088 28.2888 4.83057 19.7423C4.83058 18.587 4.95834 17.461 5.19873 16.378C5.2993 15.9251 5.70936 15.6154 6.17334 15.6153H6.34814C6.45361 15.1952 6.60691 14.7881 6.82959 14.4269C7.13058 13.9389 7.56545 13.5215 8.15967 13.2794C7.98514 12.6559 8.02417 12.0002 8.2124 11.4093C8.59079 10.2222 9.61066 9.13739 11.063 8.80576C11.2696 7.73315 11.7732 6.86415 12.4888 6.21494C13.3715 5.41427 14.504 5.00991 15.6128 4.88096C16.7232 4.75193 17.8772 4.88994 18.8755 5.24326C19.4641 5.45164 20.0394 5.75105 20.5229 6.14756C22.1152 4.87639 24.0182 4.53968 25.6118 4.94541C27.1366 5.33392 28.4518 6.45755 28.731 8.07725C29.6213 8.17614 30.4204 8.5662 30.9819 9.22666C31.549 9.89395 31.7968 10.7469 31.7095 11.6515C32.5389 11.9697 33.2049 12.6117 33.5874 13.5069C33.8518 14.1261 33.9702 14.8373 33.9438 15.6153H34.438Z" fill="black"/>
<path d="M19.5327 15.6153V17.7077H21.2646L21.5882 16.0064L19.5327 15.6153ZM19.8618 14.4747L21.8415 15.1523L21.8543 15.1147L21.8658 15.0766L19.8618 14.4747ZM20.0171 13.3272L22.0994 13.1221L22.0993 13.1214L20.0171 13.3272ZM19.6587 12.0812L21.6097 11.3249L21.606 11.3155L21.6023 11.3062L19.6587 12.0812ZM19.1187 9.71787L17.0268 9.76619L17.0268 9.7664L19.1187 9.71787ZM19.3442 7.86045L21.3835 8.32901L21.6477 7.17916L20.8005 6.35801L19.3442 7.86045ZM18.187 7.18858L18.8854 5.21618L18.8851 5.21607L18.187 7.18858ZM15.8511 6.93076L15.6096 4.85236L15.6093 4.85239L15.8511 6.93076ZM13.8755 7.74326L12.4699 6.19331L12.4694 6.19371L13.8755 7.74326ZM13.2104 8.75205L11.24 8.04831L10.3338 10.5855L13.0164 10.8354L13.2104 8.75205ZM16.0034 9.63194L17.1668 7.89281L17.1664 7.89252L16.0034 9.63194ZM17.9507 11.8995L19.7134 10.7721L19.713 10.7715L17.9507 11.8995ZM17.6382 13.3243L18.7655 15.0871L18.7668 15.0862L17.6382 13.3243ZM16.2739 13.0978L14.5634 14.3029L14.5976 14.3514L14.6345 14.3979L16.2739 13.0978ZM16.2134 13.0118L14.4592 14.1524L14.4804 14.1851L14.5029 14.2169L16.2134 13.0118ZM15.8413 12.4396L17.5955 11.299L17.5884 11.288L17.581 11.277L15.8413 12.4396ZM14.8569 11.3478L16.0208 9.60891L16.02 9.60839L14.8569 11.3478ZM11.9937 10.7638L11.9937 8.67138H11.9933L11.9937 10.7638ZM10.1782 12.0362L8.18462 11.4009L8.18439 11.4016L10.1782 12.0362ZM10.1812 12.8302L8.26814 13.6778L8.26931 13.6804L10.1812 12.8302ZM10.771 13.2814L11.3606 11.2738L11.3606 11.2737L10.771 13.2814ZM11.4702 14.5616L13.4779 15.151L13.4782 15.1499L11.4702 14.5616ZM10.1909 15.2618L8.71137 16.7414L9.09011 17.1201L9.60423 17.2703L10.1909 15.2618ZM10.1899 15.2608L11.6695 13.7813L8.09755 10.2094V15.2608H10.1899ZM10.1899 15.2618L9.52731 17.2465L12.2823 18.1663V15.2618H10.1899ZM10.1851 15.2599L10.8108 13.2632L10.7904 13.2568L10.7698 13.2508L10.1851 15.2599ZM9.00732 15.1651L8.40669 13.1608L8.40496 13.1613L9.00732 15.1651ZM8.58545 15.5099L6.80457 14.4114L6.80408 14.4122L8.58545 15.5099ZM8.52686 15.6153L6.66115 14.6681L5.11793 17.7077H8.52686V15.6153ZM30.2837 19.7423L30.2837 17.6499L30.2818 17.6499L30.2837 19.7423ZM29.5103 20.5089L27.4179 20.4955L31.6026 20.528L29.5103 20.5089ZM29.5103 20.504L31.6025 20.5241L27.4485 20.1472L29.5103 20.504ZM29.5015 20.5548L31.5489 20.9863L31.5567 20.9491L31.5632 20.9116L29.5015 20.5548ZM29.4292 20.7374L31.1983 21.8548L31.1998 21.8524L29.4292 20.7374ZM28.688 21.0089L28.6873 23.1013H28.6881L28.688 21.0089ZM28.1157 20.7843L26.3053 21.8334L26.3073 21.8368L28.1157 20.7843ZM28.0513 20.6056L25.9832 20.9237L25.9895 20.9645L25.9974 21.005L28.0513 20.6056ZM28.0435 20.5548L25.9512 20.5759L25.9527 20.7253L25.9754 20.8729L28.0435 20.5548ZM27.269 19.7882L27.269 17.6958L27.2667 17.6958L27.269 19.7882ZM26.4956 20.5626L24.4032 20.5618L24.4024 22.655H26.4956V20.5626ZM27.269 20.5626L27.2717 22.655L27.269 18.4702V20.5626ZM26.4956 20.5636L26.493 18.4712L24.4032 18.4738V20.5636H26.4956ZM26.4956 20.5802H24.4032V20.6015L24.4036 20.6228L26.4956 20.5802ZM26.4966 20.6065L24.4058 20.6881L24.4058 20.6896L26.4966 20.6065ZM26.5015 20.6788L24.4162 20.8518L24.4163 20.8524L26.5015 20.6788ZM26.5317 20.9005L24.4775 21.298L24.4777 21.2991L26.5317 20.9005ZM26.7778 21.5616L24.9685 22.6125L24.9691 22.6136L26.7778 21.5616ZM27.8745 22.4356L29.952 22.6851L30.157 20.9774L28.5213 20.4457L27.8745 22.4356ZM25.6284 25.9991L26.8122 27.7245L26.8123 27.7244L25.6284 25.9991ZM20.3062 27.4796L20.3056 29.572H20.3058L20.3062 27.4796ZM14.9829 25.9972L13.7987 27.7222L13.799 27.7224L14.9829 25.9972ZM12.7378 22.4513L12.181 20.4343L10.44 20.9149L10.6611 22.7075L12.7378 22.4513ZM13.9741 21.5616L15.7444 22.677L15.7447 22.6766L13.9741 21.5616ZM14.2515 20.8731L16.2991 21.3038L16.2993 21.3028L14.2515 20.8731ZM14.2866 20.6397L16.3705 20.828L16.3706 20.8268L14.2866 20.6397ZM14.2915 20.5626L16.382 20.6509L16.3821 20.6503L14.2915 20.5626ZM14.2925 20.5353L16.3844 20.5801L16.3849 20.5577V20.5353H14.2925ZM14.2925 20.5157H16.3849L16.3849 20.5149L14.2925 20.5157ZM13.519 19.7423L13.5196 17.6499L13.5175 17.6499L13.519 19.7423ZM12.7456 20.4972L14.7244 21.1773L14.8296 20.871L14.8374 20.5472L12.7456 20.4972ZM12.7446 20.5011L10.663 20.2893L10.6618 20.3006L10.6608 20.3119L12.7446 20.5011ZM12.7368 20.5548L14.7842 20.9862L14.7848 20.9837L12.7368 20.5548ZM12.6646 20.7374L14.4339 21.8543L14.4351 21.8524L12.6646 20.7374ZM11.9233 21.0089L11.9227 23.1013H11.9237L11.9233 21.0089ZM11.3511 20.7843L9.54066 21.8333L9.54271 21.8369L11.3511 20.7843ZM11.2866 20.6056L9.23211 21.0019L9.23269 21.0049L11.2866 20.6056ZM11.2778 20.5509L13.3622 20.3683L9.18544 20.5509H11.2778ZM11.2778 20.5548L9.18555 20.5759L13.3702 20.5548H11.2778ZM10.5044 19.7882V17.6958L10.5029 17.6958L10.5044 19.7882ZM9.73096 20.5626L7.63857 20.5618L7.63772 22.655H9.73096V20.5626ZM10.5044 20.5626L10.507 22.655L10.5044 18.4702V20.5626ZM9.73096 20.5636L9.72832 18.4712L7.63857 18.4738V20.5636H9.73096ZM9.73096 20.5802H7.63857V20.6015L7.639 20.6227L9.73096 20.5802ZM9.73193 20.6065L11.8227 20.5251L11.8227 20.525L9.73193 20.6065ZM9.73584 20.6788L7.65055 20.8511L7.65067 20.8525L9.73584 20.6788ZM9.76709 20.9005L7.71282 21.2981L7.71302 21.2991L9.76709 20.9005ZM10.0132 21.5616L8.20382 22.6125L8.20453 22.6137L10.0132 21.5616ZM11.1841 22.4571L13.267 22.2579L13.1313 20.8395L11.7618 20.4461L11.1841 22.4571ZM14.1069 27.2726L12.9227 28.9976L12.923 28.9978L14.1069 27.2726ZM20.3052 29.0274L20.3046 31.1198H20.3047L20.3052 29.0274ZM26.5034 27.2745L27.6872 28.9999L27.6873 28.9998L26.5034 27.2745ZM29.4243 22.4718L28.9307 20.4384L27.4863 20.7891L27.3418 22.2685L29.4243 22.4718ZM30.7388 21.5616L32.509 22.6772L32.5093 22.6767L30.7388 21.5616ZM31.0161 20.8731L33.0637 21.3039L33.0639 21.3028L31.0161 20.8731ZM31.0513 20.6397L33.1352 20.828L33.1353 20.8268L31.0513 20.6397ZM31.0562 20.5626L33.1467 20.6509L33.1467 20.6504L31.0562 20.5626ZM31.0571 20.5353L33.149 20.58L33.1495 20.5576V20.5353H31.0571ZM31.0571 20.5167H33.1495V18.5302L31.1657 18.4271L31.0571 20.5167ZM31.0571 20.5157V22.6081H33.1505L33.1495 20.5147L31.0571 20.5157ZM16.6948 17.6788V15.5864L16.6935 15.5864L16.6948 17.6788ZM15.1479 20.0001L13.0556 20L13.0556 20.0004L15.1479 20.0001ZM16.6948 22.3214L16.6935 24.4138H16.6948V22.3214ZM18.2427 20.0001L20.3351 20.0004L20.3351 20L18.2427 20.0001ZM23.9165 17.6788V15.5864H23.9158L23.9165 17.6788ZM22.3687 20.0001L20.2763 20L20.2763 20.0004L22.3687 20.0001ZM23.9165 22.3214L23.9158 24.4138H23.9165V22.3214ZM25.4644 20.0001L27.5567 20.0004V20L25.4644 20.0001ZM31.8774 15.6153V17.7077H33.8687L33.9673 15.7189L31.8774 15.6153ZM31.6899 14.3175L33.6144 13.4961L33.614 13.4953L31.6899 14.3175ZM30.4517 13.4874L30.451 15.5798H30.4516L30.4517 13.4874ZM29.5933 13.0284L27.8523 14.1891L27.8535 14.1908L29.5933 13.0284ZM29.4985 12.0606L27.566 11.2585L27.5654 11.2599L29.4985 12.0606ZM29.4097 10.5626L31.0044 9.20799L31.003 9.20632L29.4097 10.5626ZM27.8931 10.1456L27.5599 8.07992L27.5595 8.07998L27.8931 10.1456ZM25.5171 10.8038L24.807 8.8356L24.8069 8.83562L25.5171 10.8038ZM24.6577 11.1349L23.8638 9.19895L23.8637 9.19899L24.6577 11.1349ZM24.4155 11.2364L25.2405 13.1593L25.2405 13.1593L24.4155 11.2364ZM24.354 11.2628L23.5155 9.34576L23.5119 9.34736L24.354 11.2628ZM24.3394 11.2696L25.1209 13.2106L25.1528 13.1977L25.1843 13.1838L24.3394 11.2696ZM24.3364 11.2706L23.4884 9.35776L23.4861 9.35879L24.3364 11.2706ZM22.9741 10.7481L21.0624 11.5988L21.0631 11.6003L22.9741 10.7481ZM23.4976 9.38584L24.3493 11.297L24.7032 11.1393L24.9771 10.8654L23.4976 9.38584ZM23.4985 9.38487L22.5628 7.51337L22.2591 7.66522L22.019 7.90532L23.4985 9.38487ZM23.5005 9.38389L22.6527 7.47092L22.6083 7.49064L22.5647 7.5124L23.5005 9.38389ZM23.5063 9.38194L24.3044 11.3162L24.3279 11.3064L24.3513 11.2962L23.5063 9.38194ZM23.5269 9.37217L22.6883 7.45515L22.6844 7.45686L23.5269 9.37217ZM23.6021 9.33994L24.427 11.2629L24.427 11.2628L23.6021 9.33994ZM23.8755 9.22569L23.0816 7.28976L23.0815 7.28979L23.8755 9.22569ZM24.8169 8.86338L24.1068 6.89517L24.1067 6.89519L24.8169 8.86338ZM26.6616 8.296L27.1626 10.3275L29.2388 9.81551L28.6818 7.75098L26.6616 8.296ZM25.103 6.94444L25.6197 4.91684L25.6194 4.91675L25.103 6.94444ZM21.4019 8.12901L19.9202 6.65155L19.5083 7.06461L19.3695 7.63119L21.4019 8.12901ZM21.1821 9.67002L19.0903 9.71824L19.0903 9.71863L21.1821 9.67002ZM21.479 11.0655L19.5131 11.7821L19.5192 11.7987L19.5255 11.8151L21.479 11.0655ZM21.5757 11.3175L23.5607 10.6558L23.5459 10.6115L23.5292 10.5679L21.5757 11.3175ZM21.5786 11.3263L19.5936 11.9879L19.6096 12.0361L19.628 12.0834L21.5786 11.3263ZM22.0708 13.1241L24.1531 12.9186L24.153 12.9183L22.0708 13.1241ZM21.8364 15.0772L23.839 15.6838L23.8398 15.6812L21.8364 15.0772ZM21.8247 15.1124L23.8046 15.7891L23.8048 15.7885L21.8247 15.1124ZM21.6597 15.6153L19.6599 14.9998L18.8264 17.7077H21.6597V15.6153ZM35.4136 16.378L37.4563 15.9246L37.4562 15.9245L35.4136 16.378ZM35.7817 19.7423L37.8741 19.7424V19.7423L35.7817 19.7423ZM20.3062 35.2179L20.3061 37.3103H20.3062L20.3062 35.2179ZM4.83057 19.7423L2.73817 19.7423V19.7424L4.83057 19.7423ZM5.19873 16.378L3.15608 15.9245L3.15605 15.9246L5.19873 16.378ZM6.17334 15.6153V13.5229H6.17291L6.17334 15.6153ZM6.34814 15.6153V17.7077H7.98024L8.37758 16.1247L6.34814 15.6153ZM6.82959 14.4269L5.04871 13.3284L5.04844 13.3289L6.82959 14.4269ZM8.15967 13.2794L8.94927 15.2171L10.6778 14.5127L10.1746 12.7153L8.15967 13.2794ZM8.2124 11.4093L6.21884 10.7738L6.21873 10.7742L8.2124 11.4093ZM11.063 8.80576L11.5288 10.8457L12.8594 10.5418L13.1176 9.20161L11.063 8.80576ZM12.4888 6.21494L11.083 4.66515L11.0828 4.66528L12.4888 6.21494ZM15.6128 4.88096L15.3713 2.80255L15.3711 2.80258L15.6128 4.88096ZM18.8755 5.24326L19.5738 3.27084L19.5736 3.27077L18.8755 5.24326ZM20.5229 6.14756L19.1962 7.76553L20.5054 8.83905L21.8284 7.78274L20.5229 6.14756ZM25.6118 4.94541L26.1284 2.9178L26.1281 2.91771L25.6118 4.94541ZM28.731 8.07725L26.669 8.43262L26.9362 9.98316L28.5 10.1569L28.731 8.07725ZM30.9819 9.22666L32.5763 7.87169L32.5761 7.87136L30.9819 9.22666ZM31.7095 11.6515L29.6268 11.4504L29.4738 13.0348L30.9599 13.605L31.7095 11.6515ZM33.5874 13.5069L35.5117 12.6852L35.5116 12.6849L33.5874 13.5069ZM33.9438 15.6153L31.8527 15.5446L31.7794 17.7077H33.9438V15.6153ZM19.5327 15.6153L21.5882 16.0064C21.6336 15.7682 21.7147 15.5228 21.8415 15.1523L19.8618 14.4747L17.8822 13.7971C17.7699 14.1251 17.587 14.6472 17.4772 15.2243L19.5327 15.6153ZM19.8618 14.4747L21.8658 15.0766C22.0756 14.3779 22.1626 13.7636 22.0994 13.1221L20.0171 13.3272L17.9348 13.5324C17.9349 13.5337 17.9349 13.5338 17.9349 13.5331C17.9348 13.5325 17.9348 13.5321 17.9348 13.5325C17.9348 13.5328 17.9348 13.5349 17.9345 13.5389C17.9342 13.5431 17.9336 13.5499 17.9324 13.5598C17.9273 13.6006 17.9111 13.6955 17.8579 13.8728L19.8618 14.4747ZM20.0171 13.3272L22.0993 13.1214C22.0382 12.5032 21.8434 11.928 21.6097 11.3249L19.6587 12.0812L17.7077 12.8374C17.9184 13.3808 17.9328 13.5122 17.9348 13.5331L20.0171 13.3272ZM19.6587 12.0812L21.6023 11.3062C21.3252 10.6114 21.2211 10.1282 21.2105 9.66935L19.1187 9.71787L17.0268 9.7664C17.0525 10.872 17.3181 11.8603 17.7151 12.8561L19.6587 12.0812ZM19.1187 9.71787L21.2105 9.66955C21.2019 9.29876 21.255 8.88821 21.3835 8.32901L19.3442 7.86045L17.305 7.39189C17.1361 8.12712 17.0071 8.9131 17.0268 9.76619L19.1187 9.71787ZM19.3442 7.86045L20.8005 6.35801C20.2887 5.86193 19.6263 5.47851 18.8854 5.21618L18.187 7.18858L17.4886 9.16097C17.7788 9.26373 17.8886 9.3635 17.8879 9.36289L19.3442 7.86045ZM18.187 7.18858L18.8851 5.21607C17.8824 4.86121 16.724 4.72286 15.6096 4.85236L15.8511 6.93076L16.0926 9.00917C16.5698 8.95372 17.0855 9.0183 17.4889 9.16108L18.187 7.18858ZM15.8511 6.93076L15.6093 4.85239C14.4958 4.98191 13.3577 5.38817 12.4699 6.19331L13.8755 7.74326L15.2811 9.29322C15.3671 9.21524 15.6122 9.06505 16.0928 9.00914L15.8511 6.93076ZM13.8755 7.74326L12.4694 6.19371C11.9448 6.66978 11.5123 7.28578 11.24 8.04831L13.2104 8.75205L15.1809 9.45579C15.2 9.40245 15.2188 9.3695 15.2324 9.34924C15.2462 9.32875 15.2618 9.31076 15.2815 9.29281L13.8755 7.74326ZM13.2104 8.75205L13.0164 10.8354C13.9515 10.9225 14.4824 11.1319 14.8404 11.3714L16.0034 9.63194L17.1664 7.89252C16.0744 7.16239 14.8193 6.80048 13.4045 6.66868L13.2104 8.75205ZM16.0034 9.63194L14.84 11.3711C15.3396 11.7053 15.6469 12.1816 16.1884 13.0275L17.9507 11.8995L19.713 10.7715C19.2832 10.1001 18.5268 8.80258 17.1668 7.89281L16.0034 9.63194ZM17.9507 11.8995L16.188 13.0269C15.8729 12.5342 16.016 11.8786 16.5096 11.5624L17.6382 13.3243L18.7668 15.0862C20.2195 14.1557 20.6422 12.2243 19.7134 10.7721L17.9507 11.8995ZM17.6382 13.3243L16.5109 11.5616C16.9725 11.2663 17.5765 11.3728 17.9133 11.7976L16.2739 13.0978L14.6345 14.3979C15.6211 15.642 17.4041 15.9577 18.7655 15.0871L17.6382 13.3243ZM16.2739 13.0978L17.9844 11.8926L17.9239 11.8067L16.2134 13.0118L14.5029 14.2169L14.5634 14.3029L16.2739 13.0978ZM16.2134 13.0118L17.9676 11.8713L17.5955 11.299L15.8413 12.4396L14.0871 13.5801L14.4592 14.1524L16.2134 13.0118ZM15.8413 12.4396L17.581 11.277C17.2047 10.7139 16.7515 10.098 16.0208 9.60891L14.8569 11.3478L13.6931 13.0866C13.7165 13.1023 13.7978 13.1475 14.1016 13.6021L15.8413 12.4396ZM14.8569 11.3478L16.02 9.60839C15.0575 8.96483 13.8026 8.67142 11.9937 8.67138L11.9937 10.7638L11.9936 12.8562C12.6897 12.8562 13.1185 12.9145 13.3741 12.9741C13.6129 13.0297 13.6884 13.0835 13.6939 13.0871L14.8569 11.3478ZM11.9937 10.7638L11.9933 8.67138C10.0423 8.67167 8.64545 9.95484 8.18462 11.4009L10.1782 12.0362L12.1718 12.6716C12.1486 12.7444 12.1141 12.786 12.0779 12.8138C12.0563 12.8304 12.0329 12.8427 12.011 12.8502C11.9882 12.858 11.9798 12.8562 11.994 12.8562L11.9937 10.7638ZM10.1782 12.0362L8.18439 11.4016C7.95337 12.1274 7.94282 12.9436 8.26814 13.6778L10.1812 12.8302L12.0942 11.9825C12.2526 12.3401 12.1951 12.5985 12.1721 12.6708L10.1782 12.0362ZM10.1812 12.8302L8.26931 13.6804C8.60796 14.4419 9.26846 15.0209 10.1814 15.289L10.771 13.2814L11.3606 11.2737C11.4116 11.2887 11.5566 11.3418 11.7231 11.4836C11.8966 11.6313 12.0179 11.811 12.093 11.9799L10.1812 12.8302ZM10.771 13.2814L10.1814 15.2889C9.61855 15.1236 9.2979 14.5343 9.46221 13.9734L11.4702 14.5616L13.4782 15.1499C13.9627 13.4959 13.0163 11.76 11.3606 11.2738L10.771 13.2814ZM11.4702 14.5616L9.46255 13.9722C9.627 13.4121 10.2144 13.0888 10.7776 13.2534L10.1909 15.2618L9.60423 17.2703C11.2603 17.754 12.9928 16.8035 13.4779 15.151L11.4702 14.5616ZM10.1909 15.2618L11.6705 13.7823L11.6695 13.7813L10.1899 15.2608L8.7104 16.7404L8.71137 16.7414L10.1909 15.2618ZM10.1899 15.2608H8.09755V15.2618H10.1899H12.2823V15.2608H10.1899ZM10.1899 15.2618L10.8526 13.2771C10.887 13.2886 10.9157 13.2992 10.9367 13.3072C10.9579 13.3153 10.9752 13.3224 10.9871 13.3273C10.999 13.3322 11.0083 13.3361 11.0129 13.3381C11.0168 13.3398 11.0211 13.3417 11.0185 13.3406C11.0179 13.3403 11.0121 13.3378 11.005 13.3347C10.9975 13.3316 10.9854 13.3265 10.9703 13.3204C10.9554 13.3143 10.9345 13.3061 10.9093 13.2968C10.8844 13.2876 10.8509 13.2758 10.8108 13.2632L10.1851 15.2599L9.55929 17.2565C9.51961 17.2441 9.48646 17.2324 9.46196 17.2233C9.43719 17.2142 9.41668 17.2061 9.40211 17.2002C9.38746 17.1943 9.37574 17.1893 9.36875 17.1864C9.36199 17.1835 9.35668 17.1812 9.35645 17.1811C9.35537 17.1806 9.357 17.1813 9.3575 17.1816C9.35855 17.182 9.36067 17.1829 9.36334 17.1841C9.36841 17.1863 9.37816 17.1904 9.39044 17.1955C9.4027 17.2005 9.42047 17.2077 9.44203 17.216C9.46338 17.2242 9.49247 17.2349 9.52731 17.2465L10.1899 15.2618ZM10.1851 15.2599L10.7698 13.2508C9.91093 13.0008 9.11442 12.9487 8.40669 13.1608L9.00732 15.1651L9.60795 17.1695C9.44938 17.217 9.35077 17.2134 9.34519 17.2132C9.3412 17.213 9.41962 17.2163 9.60029 17.2689L10.1851 15.2599ZM9.00732 15.1651L8.40496 13.1613C7.67661 13.3803 7.15366 13.8455 6.80457 14.4114L8.58545 15.5099L10.3663 16.6083C10.3305 16.6663 10.2445 16.7888 10.0894 16.9138C9.92638 17.0453 9.75442 17.1254 9.60969 17.169L9.00732 15.1651ZM8.58545 15.5099L6.80408 14.4122C6.74613 14.5063 6.69876 14.594 6.66115 14.6681L8.52686 15.6153L10.3926 16.5626C10.3924 16.5629 10.3837 16.5801 10.3668 16.6075L8.58545 15.5099ZM8.52686 15.6153V17.7077H19.5327V15.6153V13.5229H8.52686V15.6153ZM30.2837 19.7423L30.2818 17.6499C28.7101 17.6513 27.4323 18.9183 27.4179 20.4898L29.5103 20.5089L31.6026 20.528C31.5959 21.2519 31.008 21.834 30.2856 21.8347L30.2837 19.7423ZM29.5103 20.5089L31.6026 20.5223C31.6027 20.5145 31.6026 20.5082 31.6026 20.5053C31.6026 20.5036 31.6026 20.5021 31.6026 20.5013C31.6026 20.5005 31.6026 20.4997 31.6026 20.4997C31.6026 20.4989 31.6026 20.5012 31.6026 20.5041C31.6026 20.5057 31.6026 20.5082 31.6026 20.5113C31.6026 20.5143 31.6026 20.5187 31.6025 20.5241L29.5103 20.504L27.418 20.484C27.4179 20.4896 27.4179 20.4944 27.4179 20.4978C27.4179 20.5012 27.4179 20.5041 27.4179 20.5061C27.4179 20.5098 27.4179 20.5129 27.4179 20.513C27.4179 20.5141 27.4179 20.5122 27.4179 20.5101C27.4179 20.5079 27.4179 20.5025 27.4179 20.4955L29.5103 20.5089ZM29.5103 20.504L27.4485 20.1472L27.4397 20.1979L29.5015 20.5548L31.5632 20.9116L31.572 20.8608L29.5103 20.504ZM29.5015 20.5548L27.4541 20.1232C27.4794 20.0032 27.5326 19.8226 27.6586 19.6224L29.4292 20.7374L31.1998 21.8524C31.403 21.5297 31.5007 21.2147 31.5489 20.9863L29.5015 20.5548ZM29.4292 20.7374L27.6601 19.6201C27.6909 19.5714 27.765 19.4596 27.8834 19.3399C28.0011 19.221 28.1324 19.1241 28.2688 19.0519C28.5376 18.9096 28.7229 18.9165 28.6879 18.9165L28.688 21.0089L28.6881 23.1013C29.2041 23.1013 29.7362 23.01 30.2261 22.7508C30.7616 22.4674 31.0522 22.086 31.1983 21.8548L29.4292 20.7374ZM28.688 21.0089L28.6887 18.9165C28.7165 18.9165 28.9691 18.9206 29.2894 19.1031C29.452 19.1957 29.5973 19.3151 29.7196 19.4518C29.8394 19.5856 29.9098 19.7071 29.9242 19.7318L28.1157 20.7843L26.3073 21.8368C26.415 22.0219 26.6795 22.4325 27.2181 22.7393C27.7066 23.0176 28.2262 23.1011 28.6873 23.1013L28.688 21.0089ZM28.1157 20.7843L29.9261 19.7352C29.989 19.8437 30.0279 19.9391 30.0521 20.0091C30.0769 20.0805 30.0936 20.1464 30.1052 20.2062L28.0513 20.6056L25.9974 21.005C26.0378 21.213 26.122 21.517 26.3053 21.8334L28.1157 20.7843ZM28.0513 20.6056L30.1193 20.2874L30.1115 20.2366L28.0435 20.5548L25.9754 20.8729L25.9832 20.9237L28.0513 20.6056ZM28.0435 20.5548L30.1357 20.5337C30.1199 18.9643 28.8427 17.6958 27.269 17.6958L27.269 19.7882L27.2691 21.8806C26.5448 21.8806 25.9584 21.2979 25.9512 20.5759L28.0435 20.5548ZM27.269 19.7882L27.2667 17.6958C25.6841 17.6975 24.4038 18.9819 24.4032 20.5618L26.4956 20.5626L28.588 20.5634C28.5877 21.2895 28.0003 21.8798 27.2713 21.8806L27.269 19.7882ZM26.4956 20.5626V22.655H27.269V20.5626V18.4702H26.4956V20.5626ZM27.269 20.5626L27.2664 18.4702L26.493 18.4712L26.4956 20.5636L26.4982 22.656L27.2717 22.655L27.269 20.5626ZM26.4956 20.5636H24.4032V20.5802H26.4956H28.588V20.5636H26.4956ZM26.4956 20.5802L24.4036 20.6228C24.4039 20.6367 24.4043 20.6485 24.4046 20.6563C24.4048 20.6644 24.4051 20.6713 24.4053 20.6758C24.4054 20.68 24.4056 20.6844 24.4057 20.6859C24.4058 20.6882 24.4058 20.6884 24.4058 20.6881L26.4966 20.6065L28.5874 20.525C28.5872 20.5199 28.587 20.5154 28.5869 20.513C28.5868 20.5115 28.5868 20.5108 28.5868 20.51C28.5867 20.5093 28.5867 20.5091 28.5867 20.5092C28.5867 20.5093 28.5868 20.51 28.5868 20.5109C28.5868 20.5119 28.5869 20.5136 28.587 20.5156C28.5871 20.5194 28.5874 20.5272 28.5876 20.5376L26.4956 20.5802ZM26.4966 20.6065L24.4058 20.6896C24.4085 20.7558 24.4134 20.8175 24.4162 20.8518L26.5015 20.6788L28.5867 20.5059C28.586 20.498 28.5859 20.4952 28.5859 20.4961C28.586 20.4967 28.5861 20.4992 28.5864 20.5034C28.5866 20.5074 28.587 20.5143 28.5873 20.5235L26.4966 20.6065ZM26.5015 20.6788L24.4163 20.8524C24.4253 20.9612 24.4422 21.116 24.4775 21.298L26.5317 20.9005L28.586 20.5029C28.5872 20.509 28.5871 20.5106 28.5866 20.5053L26.5015 20.6788ZM26.5317 20.9005L24.4777 21.2991C24.5428 21.6349 24.6776 22.1118 24.9685 22.6125L26.7778 21.5616L28.5872 20.5107C28.5904 20.5163 28.5904 20.5175 28.5889 20.5134C28.5883 20.5116 28.5876 20.5094 28.587 20.507C28.5864 20.5047 28.586 20.5029 28.5858 20.5019L26.5317 20.9005ZM26.7778 21.5616L24.9691 22.6136C25.4268 23.4005 26.1823 24.0857 27.2277 24.4256L27.8745 22.4356L28.5213 20.4457C28.5146 20.4436 28.5157 20.4433 28.5221 20.4468C28.5286 20.4504 28.5373 20.456 28.5468 20.4639C28.5665 20.4802 28.5794 20.4974 28.5865 20.5096L26.7778 21.5616ZM27.8745 22.4356L25.797 22.1862C25.6947 23.0385 25.2556 23.7173 24.4445 24.2739L25.6284 25.9991L26.8123 27.7244C28.4495 26.6009 29.6837 24.9192 29.952 22.6851L27.8745 22.4356ZM25.6284 25.9991L24.4447 24.2738C23.4533 24.9539 21.9596 25.3875 20.3065 25.3872L20.3062 27.4796L20.3058 29.572C22.6028 29.5724 24.9741 28.9855 26.8122 27.7245L25.6284 25.9991ZM20.3062 27.4796L20.3067 25.3872C18.6534 25.3868 17.1587 24.9526 16.1668 24.2719L14.9829 25.9972L13.799 27.7224C15.6369 28.9837 18.0088 29.5714 20.3056 29.572L20.3062 27.4796ZM14.9829 25.9972L16.1671 24.2721C15.357 23.716 14.9186 23.0394 14.8144 22.1951L12.7378 22.4513L10.6611 22.7075C10.9354 24.9305 12.1691 26.6035 13.7987 27.7222L14.9829 25.9972ZM12.7378 22.4513L13.2946 24.4682C14.3862 24.1669 15.2197 23.5098 15.7444 22.677L13.9741 21.5616L12.2038 20.4462C12.2066 20.4419 12.2106 20.4364 12.2159 20.4306C12.2213 20.4247 12.2266 20.42 12.2307 20.417C12.2349 20.4139 12.2351 20.4144 12.2293 20.4172C12.2233 20.4201 12.2082 20.4268 12.181 20.4343L12.7378 22.4513ZM13.9741 21.5616L15.7447 22.6766C16.0693 22.1611 16.2234 21.6633 16.2991 21.3038L14.2515 20.8731L12.2039 20.4425C12.2038 20.4427 12.2036 20.4437 12.2032 20.4453C12.2027 20.4468 12.2023 20.4482 12.2018 20.4493C12.2009 20.4518 12.201 20.4506 12.2036 20.4466L13.9741 21.5616ZM14.2515 20.8731L16.2993 21.3028C16.338 21.1184 16.359 20.956 16.3705 20.828L14.2866 20.6397L12.2027 20.4515C12.2031 20.4473 12.2034 20.4452 12.2035 20.4446C12.2036 20.444 12.2036 20.4437 12.2037 20.4435L14.2515 20.8731ZM14.2866 20.6397L16.3706 20.8268C16.3776 20.7492 16.3806 20.6852 16.382 20.6509L14.2915 20.5626L12.201 20.4743C12.2007 20.4812 12.201 20.4704 12.2026 20.4527L14.2866 20.6397ZM14.2915 20.5626L16.3821 20.6503C16.3823 20.6444 16.3837 20.6129 16.3844 20.5801L14.2925 20.5353L12.2006 20.4904C12.2007 20.4841 12.2008 20.4792 12.2009 20.4764C12.201 20.4735 12.2011 20.4715 12.2011 20.4708C12.2012 20.4698 12.2011 20.4703 12.201 20.4749L14.2915 20.5626ZM14.2925 20.5353H16.3849V20.5157H14.2925H12.2001V20.5353H14.2925ZM14.2925 20.5157L16.3849 20.5149C16.3842 18.9331 15.1022 17.6503 13.5196 17.6499L13.519 19.7423L13.5185 21.8347C12.7902 21.8345 12.2004 21.2441 12.2001 20.5166L14.2925 20.5157ZM13.519 19.7423L13.5175 17.6499C11.9603 17.651 10.691 18.8945 10.6538 20.4471L12.7456 20.4972L14.8374 20.5472C14.8203 21.263 14.2363 21.8342 13.5206 21.8347L13.519 19.7423ZM12.7456 20.4972L10.7668 19.8171C10.7674 19.8154 10.7483 19.8697 10.7294 19.9374C10.7124 19.9986 10.6797 20.1253 10.663 20.2893L12.7446 20.5011L14.8263 20.7128C14.8097 20.8753 14.7774 21.0004 14.7607 21.0603C14.7423 21.1266 14.7236 21.1797 14.7244 21.1773L12.7456 20.4972ZM12.7446 20.5011L10.6608 20.3119C10.6606 20.3141 10.663 20.2861 10.6675 20.2516C10.672 20.2172 10.6787 20.1745 10.6889 20.1259L12.7368 20.5548L14.7848 20.9837C14.8157 20.8361 14.8259 20.7186 14.8284 20.6903L12.7446 20.5011ZM12.7368 20.5548L10.6894 20.1233C10.7147 20.0031 10.768 19.8225 10.894 19.6224L12.6646 20.7374L14.4351 21.8524C14.6383 21.5297 14.7361 21.2148 14.7842 20.9862L12.7368 20.5548ZM12.6646 20.7374L10.8952 19.6205C10.9262 19.5714 11.0004 19.4595 11.1189 19.3398C11.2366 19.2208 11.3679 19.124 11.5042 19.0519C11.7729 18.9097 11.9579 18.9165 11.9229 18.9165L11.9233 21.0089L11.9237 23.1013C12.4398 23.1012 12.9718 23.0098 13.4615 22.7507C13.9968 22.4674 14.2875 22.0862 14.4339 21.8543L12.6646 20.7374ZM11.9233 21.0089L11.924 18.9165C11.9521 18.9165 12.2045 18.9207 12.5245 19.1029C12.6869 19.1954 12.832 19.3145 12.9543 19.451C13.0741 19.5848 13.1446 19.7062 13.1594 19.7317L11.3511 20.7843L9.54271 21.8369C9.65115 22.0232 9.91582 22.4332 10.4539 22.7395C10.9422 23.0175 11.4615 23.1011 11.9227 23.1013L11.9233 21.0089ZM11.3511 20.7843L13.1615 19.7352C13.2243 19.8437 13.2632 19.9391 13.2875 20.0091C13.3122 20.0805 13.3289 20.1464 13.3405 20.2062L11.2866 20.6056L9.23269 21.0049C9.27317 21.2131 9.35739 21.517 9.54066 21.8333L11.3511 20.7843ZM11.2866 20.6056L13.3411 20.2092C13.3423 20.2151 13.3444 20.2266 13.3471 20.2434C13.3484 20.2519 13.3505 20.2651 13.3527 20.2821C13.3547 20.2965 13.3587 20.3276 13.3622 20.3683L11.2778 20.5509L9.19342 20.7334C9.2043 20.8577 9.22542 20.9672 9.23212 21.0019L11.2866 20.6056ZM11.2778 20.5509H9.18544V20.5548H11.2778H13.3702V20.5509H11.2778ZM11.2778 20.5548L13.3701 20.5337C13.3543 18.9677 12.0814 17.6958 10.5044 17.6958V19.7882V21.8806C9.77673 21.8806 9.19279 21.2945 9.18555 20.5759L11.2778 20.5548ZM10.5044 19.7882L10.5029 17.6958C8.91874 17.697 7.6392 18.9826 7.63857 20.5618L9.73096 20.5626L11.8233 20.5634C11.8231 21.2886 11.2361 21.88 10.5059 21.8806L10.5044 19.7882ZM9.73096 20.5626V22.655H10.5044V20.5626V18.4702H9.73096V20.5626ZM10.5044 20.5626L10.5018 18.4702L9.72832 18.4712L9.73096 20.5636L9.7336 22.656L10.507 22.655L10.5044 20.5626ZM9.73096 20.5636H7.63857V20.5802H9.73096H11.8233V20.5636H9.73096ZM9.73096 20.5802L7.639 20.6227C7.63928 20.6367 7.63965 20.6485 7.63991 20.6563C7.64018 20.6644 7.64045 20.6713 7.64063 20.6758C7.6408 20.68 7.64098 20.6844 7.64104 20.6859C7.64114 20.6882 7.64114 20.6884 7.64113 20.688L9.73193 20.6065L11.8227 20.525C11.8225 20.52 11.8223 20.5154 11.8222 20.513C11.8222 20.5115 11.8222 20.5108 11.8221 20.51C11.8221 20.5093 11.8221 20.5091 11.8221 20.5092C11.8221 20.5093 11.8221 20.5099 11.8222 20.5109C11.8222 20.5119 11.8223 20.5135 11.8223 20.5156C11.8225 20.5194 11.8227 20.5272 11.8229 20.5376L9.73096 20.5802ZM9.73193 20.6065L7.64113 20.688C7.64141 20.6952 7.64374 20.7687 7.65055 20.8511L9.73584 20.6788L11.8211 20.5065C11.8224 20.5222 11.823 20.5334 11.8232 20.5374C11.8233 20.5394 11.8233 20.54 11.8232 20.5381C11.8232 20.5372 11.8232 20.5359 11.8231 20.5337C11.823 20.532 11.8229 20.5282 11.8227 20.5251L9.73193 20.6065ZM9.73584 20.6788L7.65067 20.8525C7.66134 20.9806 7.68069 21.1321 7.71282 21.2981L9.76709 20.9005L11.8214 20.5029C11.8206 20.4989 11.8202 20.496 11.82 20.4951C11.8199 20.494 11.8203 20.497 11.821 20.5051L9.73584 20.6788ZM9.76709 20.9005L7.71302 21.2991C7.7782 21.635 7.91303 22.1118 8.20382 22.6125L10.0132 21.5616L11.8225 20.5108C11.8258 20.5163 11.8257 20.5175 11.8243 20.5133C11.8236 20.5115 11.823 20.5093 11.8224 20.507C11.8217 20.5046 11.8213 20.5028 11.8212 20.5019L9.76709 20.9005ZM10.0132 21.5616L8.20453 22.6137C8.68654 23.4423 9.49375 24.1486 10.6064 24.4682L11.1841 22.4571L11.7618 20.4461C11.7502 20.4427 11.7485 20.4411 11.7539 20.4439C11.7592 20.4466 11.7678 20.4518 11.778 20.4599C11.7994 20.4769 11.8138 20.4957 11.8218 20.5095L10.0132 21.5616ZM11.1841 22.4571L9.10119 22.6563C9.37082 25.4758 10.9068 27.6136 12.9227 28.9976L14.1069 27.2726L15.2912 25.5476C14.1356 24.7542 13.4013 23.6624 13.267 22.2579L11.1841 22.4571ZM14.1069 27.2726L12.923 28.9978C15.0735 30.4737 17.7694 31.1192 20.3046 31.1198L20.3052 29.0274L20.3057 26.9351C18.4145 26.9345 16.5956 26.4428 15.2909 25.5474L14.1069 27.2726ZM20.3052 29.0274L20.3047 31.1198C22.8403 31.1204 25.5361 30.4757 27.6872 28.9999L26.5034 27.2745L25.3197 25.5492C24.0149 26.4443 22.1966 26.9354 20.3056 26.9351L20.3052 29.0274ZM26.5034 27.2745L27.6873 28.9998C29.7003 27.6185 31.2323 25.4866 31.5068 22.6751L29.4243 22.4718L27.3418 22.2685C27.205 23.67 26.4721 24.7583 25.3195 25.5493L26.5034 27.2745ZM29.4243 22.4718L29.9179 24.5051C31.0761 24.224 31.9601 23.5482 32.509 22.6772L30.7388 21.5616L28.9686 20.4461C28.9712 20.4419 28.9753 20.4363 28.9808 20.4304C28.9864 20.4243 28.9919 20.4198 28.9958 20.417C28.9997 20.4141 28.999 20.4153 28.991 20.419C28.9828 20.4227 28.9638 20.4304 28.9307 20.4384L29.4243 22.4718ZM30.7388 21.5616L32.5093 22.6767C32.834 22.1611 32.9881 21.6632 33.0637 21.3039L31.0161 20.8731L28.9685 20.4424C28.9685 20.4427 28.9682 20.4437 28.9678 20.4453C28.9674 20.4468 28.9669 20.4482 28.9665 20.4493C28.9655 20.4519 28.9657 20.4506 28.9682 20.4466L30.7388 21.5616ZM31.0161 20.8731L33.0639 21.3028C33.1026 21.1184 33.1236 20.956 33.1352 20.828L31.0513 20.6397L28.9674 20.4515C28.9677 20.4474 28.968 20.4453 28.9681 20.4446C28.9682 20.4439 28.9683 20.4437 28.9683 20.4435L31.0161 20.8731ZM31.0513 20.6397L33.1353 20.8268C33.1423 20.7492 33.1452 20.6852 33.1467 20.6509L31.0562 20.5626L28.9656 20.4743C28.9653 20.4812 28.9657 20.4704 28.9673 20.4527L31.0513 20.6397ZM31.0562 20.5626L33.1467 20.6504C33.1469 20.6445 33.1483 20.6129 33.149 20.58L31.0571 20.5353L28.9652 20.4905C28.9654 20.4842 28.9655 20.4793 28.9656 20.4764C28.9657 20.4735 28.9657 20.4715 28.9658 20.4707C28.9658 20.4697 28.9658 20.4702 28.9656 20.4748L31.0562 20.5626ZM31.0571 20.5353H33.1495V20.5167H31.0571H28.9647V20.5353H31.0571ZM31.0571 20.5167L31.1657 18.4271C31.0852 18.4229 30.9097 18.4233 30.2837 18.4233L30.2837 20.5157L30.2837 22.6081C30.6279 22.6081 30.8175 22.6083 30.9218 22.6084C30.9743 22.6085 31.0027 22.6086 31.0173 22.6087C31.0251 22.6088 31.0254 22.6088 31.0219 22.6087C31.0202 22.6087 31.0141 22.6086 31.0056 22.6084C31.0004 22.6083 30.9778 22.6078 30.9486 22.6063L31.0571 20.5167ZM30.2837 20.5157V22.6081H31.0571V20.5157V18.4233H30.2837V20.5157ZM31.0571 20.5157L33.1495 20.5147C33.1487 18.9338 31.8675 17.6499 30.2837 17.6499L30.2837 19.7423L30.2837 21.8347C29.5543 21.8347 28.9651 21.2434 28.9647 20.5167L31.0571 20.5157ZM16.6948 17.6788L16.6935 15.5864C15.3495 15.5872 14.3889 16.4048 13.8598 17.1987C13.321 18.0073 13.0556 19.0038 13.0556 20L15.1479 20.0001L17.2403 20.0002C17.2403 19.7147 17.3212 19.5508 17.3422 19.5194C17.3498 19.508 17.3172 19.5625 17.2143 19.6279C17.1025 19.6988 16.9222 19.7711 16.6961 19.7712L16.6948 17.6788ZM15.1479 20.0001L13.0556 20.0004C13.0557 20.9965 13.3211 21.9928 13.8599 22.8013C14.3888 23.5951 15.3493 24.413 16.6935 24.4138L16.6948 22.3214L16.6961 20.229C16.9224 20.2291 17.1028 20.3014 17.2146 20.3724C17.3174 20.4378 17.35 20.4923 17.3423 20.4808C17.3213 20.4492 17.2404 20.2852 17.2403 19.9998L15.1479 20.0001ZM16.6948 22.3214V24.4138C18.0395 24.4138 19.0007 23.5961 19.53 22.8022C20.0692 21.9936 20.3349 20.9969 20.3351 20.0004L18.2427 20.0001L16.1503 19.9998C16.1502 20.2851 16.0693 20.449 16.0483 20.4806C16.0406 20.4921 16.0732 20.4375 16.1761 20.3722C16.288 20.3012 16.4685 20.229 16.6948 20.229V22.3214ZM18.2427 20.0001L20.3351 20C20.335 19.0034 20.0694 18.0066 19.5301 17.1978C19.0006 16.4038 18.0393 15.5864 16.6948 15.5864V17.6788V19.7712C16.4687 19.7712 16.2883 19.6991 16.1764 19.6281C16.0734 19.5628 16.0408 19.5082 16.0484 19.5196C16.0694 19.551 16.1503 19.7148 16.1503 20.0002L18.2427 20.0001ZM23.9165 17.6788L23.9158 15.5864C22.5717 15.5869 21.6108 16.4041 21.0814 17.1979C20.5421 18.0066 20.2763 19.0033 20.2763 20L22.3687 20.0001L24.461 20.0002C24.4611 19.7151 24.5419 19.5513 24.5629 19.5198C24.5706 19.5084 24.538 19.5629 24.4352 19.6281C24.3235 19.699 24.1433 19.7711 23.9172 19.7712L23.9165 17.6788ZM22.3687 20.0001L20.2763 20.0004C20.2764 20.997 20.5423 21.9936 21.0814 22.8021C21.6107 23.5958 22.5715 24.4133 23.9158 24.4138L23.9165 22.3214L23.9172 20.229C24.1434 20.2291 24.3238 20.3013 24.4355 20.3722C24.5382 20.4374 24.5707 20.4919 24.5631 20.4804C24.542 20.4487 24.4611 20.2848 24.461 19.9998L22.3687 20.0001ZM23.9165 22.3214V24.4138C25.2612 24.4138 26.2224 23.5961 26.7517 22.8022C27.2909 21.9936 27.5566 20.9969 27.5567 20.0004L25.4644 20.0001L23.372 19.9998C23.3719 20.2851 23.291 20.449 23.2699 20.4806C23.2623 20.4921 23.2949 20.4375 23.3978 20.3722C23.5097 20.3012 23.6902 20.229 23.9165 20.229V22.3214ZM25.4644 20.0001L27.5567 20C27.5567 19.0034 27.291 18.0066 26.7517 17.1978C26.2222 16.4038 25.261 15.5864 23.9165 15.5864V17.6788V19.7712C23.6904 19.7712 23.5099 19.6991 23.3981 19.6281C23.2951 19.5628 23.2625 19.5082 23.2701 19.5196C23.291 19.551 23.372 19.7148 23.372 20.0002L25.4644 20.0001ZM31.8774 15.6153L33.9673 15.7189C34.0068 14.9206 33.8978 14.1601 33.6144 13.4961L31.6899 14.3175L29.7655 15.1389C29.7503 15.1033 29.8027 15.2079 29.7876 15.5118L31.8774 15.6153ZM31.6899 14.3175L33.614 13.4953C33.363 12.9079 32.957 12.3498 32.3519 11.949C31.7464 11.548 31.0782 11.395 30.4518 11.395L30.4517 13.4874L30.4516 15.5798C30.3983 15.5798 30.2303 15.5633 30.0411 15.438C29.8523 15.3129 29.7787 15.1698 29.7658 15.1396L31.6899 14.3175ZM30.4517 13.4874L30.4523 11.395C30.8063 11.3951 31.1362 11.5714 31.3331 11.866L29.5933 13.0284L27.8535 14.1908C28.433 15.0582 29.4081 15.5795 30.451 15.5798L30.4517 13.4874ZM29.5933 13.0284L31.3342 11.8677C31.5308 12.1625 31.5669 12.5348 31.4317 12.8614L29.4985 12.0606L27.5654 11.2599C27.1667 12.2224 27.2739 13.3216 27.8523 14.1891L29.5933 13.0284ZM29.4985 12.0606L31.4311 12.8628C31.9901 11.5159 31.8185 10.1664 31.0044 9.20799L29.4097 10.5626L27.8149 11.9172C27.6778 11.7557 27.5997 11.569 27.5787 11.3971C27.5582 11.2287 27.603 11.1695 27.566 11.2585L29.4985 12.0606ZM29.4097 10.5626L31.003 9.20632C30.2026 8.26609 28.9176 7.8609 27.5599 8.07992L27.8931 10.1456L28.2263 12.2113C28.3134 12.1973 28.2896 12.2185 28.1918 12.1866C28.0994 12.1564 27.9552 12.082 27.8164 11.9189L29.4097 10.5626ZM27.8931 10.1456L27.5595 8.07998C26.5895 8.23664 25.5642 8.56242 24.807 8.8356L25.5171 10.8038L26.2272 12.772C26.8943 12.5314 27.6359 12.3066 28.2267 12.2112L27.8931 10.1456ZM25.5171 10.8038L24.8069 8.83562C24.4222 8.97444 24.0946 9.10429 23.8638 9.19895L24.6577 11.1349L25.4517 13.0708C25.6406 12.9933 25.911 12.8861 26.2272 12.772L25.5171 10.8038ZM24.6577 11.1349L23.8637 9.19899C23.7465 9.24704 23.6534 9.28659 23.5905 9.31354L24.4155 11.2364L25.2405 13.1593C25.2879 13.139 25.3599 13.1084 25.4517 13.0707L24.6577 11.1349ZM24.4155 11.2364L23.5906 9.31352C23.5791 9.31843 23.5698 9.3224 23.5579 9.3275C23.5488 9.33138 23.5319 9.33859 23.5155 9.34576L24.354 11.2628L25.1925 13.1798C25.19 13.1809 25.1892 13.1813 25.1914 13.1803C25.1934 13.1794 25.1964 13.1782 25.2012 13.1761C25.2099 13.1724 25.2247 13.1661 25.2405 13.1593L24.4155 11.2364ZM24.354 11.2628L23.5119 9.34736C23.4943 9.35508 23.4792 9.36198 23.4673 9.36752C23.4555 9.373 23.4461 9.37751 23.4411 9.37987C23.4399 9.38046 23.4388 9.38097 23.4381 9.3813C23.4378 9.38147 23.4375 9.38162 23.4373 9.38171C23.437 9.38185 23.4371 9.38183 23.4369 9.38189C23.4363 9.38218 23.4384 9.38119 23.4411 9.37991C23.4438 9.37862 23.4497 9.37577 23.4575 9.37216C23.4616 9.37028 23.4667 9.36791 23.4726 9.36521C23.4785 9.36251 23.4859 9.35919 23.4944 9.35542L24.3394 11.2696L25.1843 13.1838C25.1932 13.1799 25.2009 13.1764 25.2072 13.1735C25.2136 13.1707 25.2191 13.1681 25.2236 13.166C25.2322 13.162 25.2391 13.1587 25.2428 13.157C25.2465 13.1552 25.2496 13.1537 25.2502 13.1534C25.2515 13.1528 25.2504 13.1533 25.2495 13.1538C25.2471 13.1549 25.2403 13.1581 25.2315 13.1623C25.2224 13.1665 25.2104 13.1719 25.1962 13.1782L24.354 11.2628ZM24.3394 11.2696L23.5579 9.32866C23.6066 9.30905 23.6475 9.29472 23.6755 9.28537C23.7035 9.27603 23.7255 9.26936 23.7332 9.26702C23.7354 9.26638 23.7412 9.26463 23.7365 9.26603C23.7354 9.26637 23.7262 9.26912 23.7146 9.27272C23.7039 9.27607 23.6797 9.28367 23.6493 9.29423C23.6335 9.29975 23.6121 9.30739 23.5871 9.317C23.5626 9.3264 23.5285 9.33999 23.4884 9.35776L24.3364 11.2706L25.1844 13.1835C25.1444 13.2012 25.1104 13.2148 25.086 13.2241C25.061 13.2337 25.0397 13.2413 25.0239 13.2468C24.9937 13.2573 24.9697 13.2649 24.9592 13.2682C24.9478 13.2717 24.9388 13.2744 24.9379 13.2747C24.9335 13.276 24.9396 13.2742 24.942 13.2734C24.9502 13.2709 24.9728 13.2641 25.0014 13.2546C25.03 13.245 25.0715 13.2305 25.1209 13.2106L24.3394 11.2696ZM24.3364 11.2706L23.4861 9.35879C24.0199 9.12135 24.6462 9.36028 24.8851 9.89603L22.9741 10.7481L21.0631 11.6003C21.7658 13.1761 23.6124 13.8827 25.1868 13.1824L24.3364 11.2706ZM22.9741 10.7481L24.8858 9.89752C25.1247 10.4345 24.8822 11.0595 24.3493 11.297L23.4976 9.38584L22.6458 7.47467C21.0725 8.17584 20.3604 10.0211 21.0624 11.5988L22.9741 10.7481ZM23.4976 9.38584L24.9771 10.8654L24.9781 10.8644L23.4985 9.38487L22.019 7.90532L22.018 7.9063L23.4976 9.38584ZM23.4985 9.38487L24.4343 11.2564L24.4362 11.2554L23.5005 9.38389L22.5647 7.5124L22.5628 7.51337L23.4985 9.38487ZM23.5005 9.38389L24.3482 11.2969C24.2938 11.321 24.2477 11.3386 24.2155 11.3503C24.1828 11.3622 24.1558 11.3711 24.1384 11.3766C24.1209 11.3822 24.1071 11.3863 24.101 11.3882C24.0977 11.3892 24.0951 11.3899 24.0941 11.3902C24.0938 11.3903 24.0936 11.3904 24.0935 11.3904C24.0934 11.3904 24.0933 11.3904 24.0933 11.3905C24.0933 11.3905 24.0932 11.3905 24.0932 11.3905C24.0931 11.3905 24.0936 11.3904 24.094 11.3902C24.0955 11.3898 24.103 11.3876 24.1124 11.3847C24.1222 11.3818 24.1366 11.3773 24.1538 11.3717C24.1872 11.3608 24.2404 11.3426 24.3044 11.3162L23.5063 9.38194L22.7083 7.44771C22.7712 7.42176 22.8234 7.40389 22.8556 7.39337C22.8723 7.38791 22.8861 7.38364 22.8954 7.38083C22.9043 7.37813 22.9113 7.37608 22.9122 7.37579C22.9159 7.3747 22.9091 7.37671 22.9037 7.37831C22.8971 7.38028 22.8829 7.38457 22.8649 7.3903C22.8471 7.39599 22.8197 7.405 22.7866 7.41703C22.754 7.42888 22.7075 7.44667 22.6527 7.47092L23.5005 9.38389ZM23.5063 9.38194L24.3513 11.2962C24.3711 11.2874 24.3876 11.2797 24.3994 11.2742C24.4112 11.2686 24.4209 11.2639 24.4271 11.2609C24.4332 11.258 24.4381 11.2555 24.44 11.2546C24.441 11.2541 24.442 11.2536 24.4421 11.2536C24.4424 11.2534 24.4422 11.2535 24.4417 11.2538C24.44 11.2546 24.4311 11.259 24.4192 11.2646C24.4069 11.2705 24.3899 11.2784 24.3693 11.2875L23.5269 9.37217L22.6844 7.45686C22.6595 7.46781 22.6384 7.47765 22.6222 7.48534C22.6064 7.49285 22.5938 7.49905 22.5887 7.50157C22.5874 7.50222 22.5863 7.50278 22.5858 7.50303C22.585 7.5034 22.5853 7.50328 22.5854 7.5032C22.5857 7.50307 22.5891 7.50138 22.5937 7.49912C22.5984 7.49684 22.6067 7.49284 22.6172 7.4879C22.6276 7.48301 22.6428 7.47594 22.6614 7.46772L23.5063 9.38194ZM23.5269 9.37217L24.3654 11.2892C24.3645 11.2896 24.3672 11.2884 24.3805 11.2827C24.3912 11.2782 24.4087 11.2707 24.427 11.2629L23.6021 9.33994L22.7771 7.41703C22.7634 7.42292 22.7521 7.42772 22.7375 7.43394C22.7257 7.43901 22.7068 7.44707 22.6883 7.45515L23.5269 9.37217ZM23.6021 9.33994L24.427 11.2628C24.4786 11.2407 24.5612 11.206 24.6695 11.1616L23.8755 9.22569L23.0815 7.28979C22.9582 7.34035 22.8542 7.38394 22.7771 7.41705L23.6021 9.33994ZM23.8755 9.22569L24.6694 11.1616C24.8785 11.0759 25.1768 10.9579 25.527 10.8316L24.8169 8.86338L24.1067 6.89519C23.6903 7.04543 23.3354 7.18568 23.0816 7.28976L23.8755 9.22569ZM24.8169 8.86338L25.527 10.8316C26.0075 10.6582 26.5848 10.47 27.1626 10.3275L26.6616 8.296L26.1606 6.26447C25.396 6.45303 24.6721 6.69122 24.1068 6.89517L24.8169 8.86338ZM26.6616 8.296L28.6818 7.75098C28.2663 6.21088 27.0019 5.26906 25.6197 4.91684L25.103 6.94444L24.5863 8.97203C24.7379 9.01066 24.7737 9.05203 24.7514 9.03245C24.7401 9.0225 24.7184 9.00049 24.6954 8.96423C24.6722 8.92754 24.6534 8.88517 24.6415 8.84102L26.6616 8.296ZM25.103 6.94444L25.6194 4.91675C23.8185 4.45817 21.6223 4.94469 19.9202 6.65155L21.4019 8.12901L22.8835 9.60646C23.5657 8.92229 24.2516 8.88679 24.5867 8.97212L25.103 6.94444ZM21.4019 8.12901L19.3695 7.63119C19.1919 8.35627 19.0743 9.0244 19.0903 9.71824L21.1821 9.67002L23.274 9.62181C23.2704 9.46545 23.2914 9.20951 23.4342 8.62682L21.4019 8.12901ZM21.1821 9.67002L19.0903 9.71863C19.1062 10.4018 19.2477 11.0537 19.5131 11.7821L21.479 11.0655L23.4449 10.349C23.2978 9.94546 23.2769 9.74984 23.274 9.62141L21.1821 9.67002ZM21.479 11.0655L19.5255 11.8151L19.6222 12.0671L21.5757 11.3175L23.5292 10.5679L23.4325 10.3159L21.479 11.0655ZM21.5757 11.3175L19.5907 11.9792L19.5936 11.9879L21.5786 11.3263L23.5636 10.6646L23.5607 10.6558L21.5757 11.3175ZM21.5786 11.3263L19.628 12.0834C19.8525 12.6618 19.9573 13.0133 19.9886 13.3299L22.0708 13.1241L24.153 12.9183C24.0626 12.0031 23.7769 11.2071 23.5292 10.5691L21.5786 11.3263ZM22.0708 13.1241L19.9885 13.3296C20.0176 13.6243 19.9893 13.9553 19.8331 14.4733L21.8364 15.0772L23.8398 15.6812C24.1069 14.7952 24.2499 13.8998 24.1531 12.9186L22.0708 13.1241ZM21.8364 15.0772L19.8339 14.4706C19.8379 14.4575 19.8413 14.4467 19.8438 14.439C19.8463 14.4314 19.8482 14.4258 19.849 14.4233C19.8498 14.421 19.8502 14.4198 19.8493 14.4224C19.8489 14.4237 19.8467 14.4301 19.8446 14.4363L21.8247 15.1124L23.8048 15.7885C23.8047 15.7889 23.8045 15.7895 23.8061 15.7849C23.8072 15.7817 23.8096 15.7746 23.8124 15.7665C23.8177 15.7507 23.8278 15.7207 23.839 15.6838L21.8364 15.0772ZM21.8247 15.1124L19.8448 14.4357C19.7733 14.6449 19.7117 14.8315 19.6599 14.9998L21.6597 15.6153L23.6595 16.2308C23.6938 16.1193 23.7404 15.9772 23.8046 15.7891L21.8247 15.1124ZM21.6597 15.6153V17.7077H31.8774V15.6153V13.5229H21.6597V15.6153ZM34.438 15.6153V17.7077C33.9857 17.7077 33.4966 17.3977 33.3709 16.8315L35.4136 16.378L37.4562 15.9245C37.1294 14.4523 35.8184 13.5229 34.438 13.5229V15.6153ZM35.4136 16.378L33.3709 16.8314C33.5787 17.7677 33.6893 18.7417 33.6893 19.7423L35.7817 19.7423L37.8741 19.7423C37.8741 18.4323 37.7292 17.1543 37.4563 15.9246L35.4136 16.378ZM35.7817 19.7423L33.6893 19.7422C33.6891 27.1331 27.6969 33.1253 20.3061 33.1255L20.3062 35.2179L20.3062 37.3103C30.0082 37.31 37.8738 29.4443 37.8741 19.7424L35.7817 19.7423ZM20.3062 35.2179L20.3062 33.1255C12.9152 33.1255 6.92323 27.1333 6.92296 19.7422L4.83057 19.7423L2.73817 19.7424C2.73853 29.4444 10.6039 37.3102 20.3061 37.3103L20.3062 35.2179ZM4.83057 19.7423L6.92296 19.7423C6.92297 18.7417 7.03358 17.7677 7.24141 16.8314L5.19873 16.378L3.15605 15.9246C2.8831 17.1543 2.73819 18.4323 2.73817 19.7423L4.83057 19.7423ZM5.19873 16.378L7.24138 16.8315C7.11612 17.3957 6.62791 17.7076 6.17377 17.7077L6.17334 15.6153L6.17291 13.5229C4.79082 13.5232 3.48247 14.4544 3.15608 15.9245L5.19873 16.378ZM6.17334 15.6153V17.7077H6.34814V15.6153V13.5229H6.17334V15.6153ZM6.34814 15.6153L8.37758 16.1247C8.44596 15.8523 8.52888 15.6577 8.61074 15.5249L6.82959 14.4269L5.04844 13.3289C4.68493 13.9185 4.46126 14.538 4.31871 15.1059L6.34814 15.6153ZM6.82959 14.4269L8.61047 15.5253C8.71482 15.3561 8.82599 15.2673 8.94927 15.2171L8.15967 13.2794L7.37007 11.3417C6.3049 11.7758 5.54635 12.5216 5.04871 13.3284L6.82959 14.4269ZM8.15967 13.2794L10.1746 12.7153C10.1243 12.5356 10.1248 12.2994 10.2061 12.0444L8.2124 11.4093L6.21873 10.7742C5.92348 11.701 5.84599 12.7763 6.14474 13.8435L8.15967 13.2794ZM8.2124 11.4093L10.206 12.0447C10.3773 11.5074 10.8537 10.9998 11.5288 10.8457L11.063 8.80576L10.5972 6.76588C8.36766 7.27498 6.80432 8.93705 6.21884 10.7738L8.2124 11.4093ZM11.063 8.80576L13.1176 9.20161C13.2405 8.56359 13.522 8.10271 13.8947 7.7646L12.4888 6.21494L11.0828 4.66528C10.0244 5.62558 9.29876 6.9027 9.00838 8.40992L11.063 8.80576ZM12.4888 6.21494L13.8946 7.76474C14.3753 7.32866 15.0605 7.05168 15.8545 6.95934L15.6128 4.88096L15.3711 2.80258C13.9474 2.96814 12.3676 3.49988 11.083 4.66515L12.4888 6.21494ZM15.6128 4.88096L15.8543 6.95937C16.646 6.86738 17.4786 6.96845 18.1774 7.21576L18.8755 5.24326L19.5736 3.27077C18.2758 2.81143 16.8005 2.63649 15.3713 2.80255L15.6128 4.88096ZM18.8755 5.24326L18.1772 7.21569C18.5856 7.36028 18.9359 7.55209 19.1962 7.76553L20.5229 6.14756L21.8497 4.52959C21.1429 3.95001 20.3425 3.54299 19.5738 3.27084L18.8755 5.24326ZM20.5229 6.14756L21.8284 7.78274C22.9192 6.91191 24.1505 6.73249 25.0956 6.97311L25.6118 4.94541L26.1281 2.91771C23.886 2.34687 21.3111 2.84086 19.2175 4.51238L20.5229 6.14756ZM25.6118 4.94541L25.0952 6.97302C26.0222 7.20923 26.5623 7.81374 26.669 8.43262L28.731 8.07725L30.7929 7.72187C30.3413 5.10136 28.2509 3.45861 26.1284 2.9178L25.6118 4.94541ZM28.731 8.07725L28.5 10.1569C28.9245 10.204 29.2115 10.3746 29.3878 10.582L30.9819 9.22666L32.5761 7.87136C31.6294 6.75784 30.3181 6.14828 28.9619 5.99765L28.731 8.07725ZM30.9819 9.22666L29.3875 10.5816C29.5594 10.7839 29.6641 11.0636 29.6268 11.4504L31.7095 11.6515L33.7922 11.8525C33.9295 10.4301 33.5386 9.00397 32.5763 7.87169L30.9819 9.22666ZM31.7095 11.6515L30.9599 13.605C31.2344 13.7103 31.4918 13.9276 31.6633 14.329L33.5874 13.5069L35.5116 12.6849C34.9181 11.2958 33.8434 10.2291 32.459 9.69794L31.7095 11.6515ZM33.5874 13.5069L31.6631 14.3286C31.7878 14.6207 31.8704 15.019 31.8527 15.5446L33.9438 15.6153L36.035 15.6861C36.0699 14.6556 35.9158 13.6316 35.5117 12.6852L33.5874 13.5069ZM33.9438 15.6153V17.7077H34.438V15.6153V13.5229H33.9438V15.6153Z" fill="white" mask="url(#path-3-outside-2_592_68)"/>
<defs>
<linearGradient id="paint0_linear_592_68" x1="33.5443" y1="2.40543" x2="9.19728" y2="37.786" gradientUnits="userSpaceOnUse">
<stop stop-color="#FFDF80"/>
<stop offset="1" stop-color="#FD4C86"/>
</linearGradient>
</defs>
</svg>
