<svg width="48" height="48" viewBox="0 0 48 48" fill="none" xmlns="http://www.w3.org/2000/svg">
<g clip-path="url(#clip0_796_520)">
<path d="M0.862596 22.508C-0.913135 19.4324 0.140663 15.4996 3.21632 13.7238L25.4922 0.862841C28.5679 -0.912891 32.5007 0.140907 34.2764 3.21656L47.1374 25.4924C48.9131 28.5681 47.8593 32.5009 44.7837 34.2767L22.5078 47.1376C19.4321 48.9134 15.4993 47.8596 13.7236 44.7839L0.862596 22.508Z" fill="#FD694C"/>
<path d="M17.3333 9H15.6667C14.7826 9 13.9348 9.35119 13.3096 9.97631C12.6845 10.6014 12.3333 11.4493 12.3333 12.3333V20.6667C12.3333 21.5507 11.9821 22.3986 11.357 23.0237C10.7319 23.6488 9.88405 24 9 24C9.88405 24 10.7319 24.3512 11.357 24.9763C11.9821 25.6014 12.3333 26.4493 12.3333 27.3333V35.6667C12.3333 37.5 13.8333 39 15.6667 39H17.3333M30.6667 39H32.3333C33.2174 39 34.0652 38.6488 34.6904 38.0237C35.3155 37.3986 35.6667 36.5507 35.6667 35.6667V27.3333C35.6667 25.5 37.1667 24 39 24C38.1159 24 37.2681 23.6488 36.643 23.0237C36.0179 22.3986 35.6667 21.5507 35.6667 20.6667V12.3333C35.6667 11.4493 35.3155 10.6014 34.6904 9.97631C34.0652 9.35119 33.2174 9 32.3333 9H30.6667" stroke="#4D1729" stroke-width="4" stroke-linecap="round" stroke-linejoin="round"/>
</g>
<defs>
<clipPath id="clip0_796_520">
<rect width="48" height="48" fill="white"/>
</clipPath>
</defs>
</svg>
