<svg width="48" height="48" viewBox="0 0 48 48" fill="none" xmlns="http://www.w3.org/2000/svg">
<g clip-path="url(#clip0_796_513)">
<path d="M0.862596 22.508C-0.913135 19.4324 0.140663 15.4996 3.21632 13.7238L25.4922 0.862841C28.5679 -0.912891 32.5007 0.140907 34.2764 3.21656L47.1374 25.4924C48.9131 28.5681 47.8593 32.5009 44.7837 34.2767L22.5078 47.1376C19.4321 48.9134 15.4993 47.8596 13.7236 44.7839L0.862596 22.508Z" fill="#FD694C"/>
<path d="M17.3333 7.33325L20.4667 10.4666M27.5333 10.4666L30.6667 7.33325M19 15.8833V14.2166C18.9698 13.5412 19.0767 12.8666 19.3144 12.2337C19.552 11.6007 19.9155 11.0225 20.3827 10.5338C20.85 10.0452 21.4114 9.65629 22.0331 9.3906C22.6548 9.1249 23.3239 8.98792 24 8.98792C24.6761 8.98792 25.3452 9.1249 25.9669 9.3906C26.5886 9.65629 27.15 10.0452 27.6173 10.5338C28.0846 11.0225 28.448 11.6007 28.6856 12.2337C28.9233 12.8666 29.0302 13.5412 29 14.2166V15.8833M24 37.3333C18.5 37.3333 14 32.8333 14 27.3333V22.3333C14 20.5651 14.7024 18.8694 15.9526 17.6192C17.2029 16.369 18.8986 15.6666 20.6667 15.6666H27.3333C29.1015 15.6666 30.7971 16.369 32.0474 17.6192C33.2976 18.8694 34 20.5651 34 22.3333V27.3333C34 32.8333 29.5 37.3333 24 37.3333ZM24 37.3333V22.3333M14.8833 18.9999C11.6667 18.6666 9.00001 15.8333 9.00001 12.3333M14 25.6666H7.33334M9.00001 38.9999C9.00001 35.4999 11.8333 32.4999 15.3333 32.3333M38.95 12.3333C38.95 15.8333 36.2833 18.6666 33.1167 18.9999M40.6667 25.6666H34M32.6667 32.3333C36.1667 32.4999 39 35.4999 39 38.9999" stroke="#4D1729" stroke-width="4" stroke-linecap="round" stroke-linejoin="round"/>
</g>
<defs>
<clipPath id="clip0_796_513">
<rect width="48" height="48" fill="white"/>
</clipPath>
</defs>
</svg>
