<svg width="48" height="48" viewBox="0 0 48 48" fill="none" xmlns="http://www.w3.org/2000/svg">
<g clip-path="url(#clip0_796_506)">
<path d="M0.862581 22.508C-0.91315 19.4324 0.140648 15.4996 3.2163 13.7238L25.4922 0.862841C28.5678 -0.912891 32.5007 0.140907 34.2764 3.21656L47.1374 25.4924C48.9131 28.5681 47.8593 32.5009 44.7837 34.2767L22.5078 47.1376C19.4321 48.9134 15.4993 47.8596 13.7236 44.7839L0.862581 22.508Z" fill="#FD694C"/>
<path d="M32.3333 29.0001L23.1667 38.1668L19 34.0001M12.3333 33.5718C10.8048 32.5068 9.55357 31.0912 8.68425 29.4436C7.81493 27.7959 7.35281 25.964 7.33657 24.1012C7.32033 22.2383 7.75043 20.3986 8.59089 18.736C9.43134 17.0735 10.6577 15.6363 12.1674 14.5449C13.6771 13.4534 15.4263 12.7393 17.2685 12.4624C19.1107 12.1855 20.9925 12.3537 22.7564 12.9531C24.5203 13.5525 26.115 14.5655 27.4071 15.9075C28.6992 17.2495 29.6512 18.8814 30.1833 20.6668H33.1667C34.9353 20.6675 36.6469 21.2932 37.9989 22.4335C39.351 23.5738 40.2565 25.1552 40.5556 26.8984C40.8547 28.6416 40.5281 30.4344 39.6336 31.9602C38.739 33.486 37.3339 34.6465 35.6667 35.2368" stroke="#4D1729" stroke-width="4" stroke-linecap="round" stroke-linejoin="round"/>
</g>
<defs>
<clipPath id="clip0_796_506">
<rect width="48" height="48" fill="white"/>
</clipPath>
</defs>
</svg>
