<svg width="48" height="48" viewBox="0 0 48 48" fill="none" xmlns="http://www.w3.org/2000/svg">
<g clip-path="url(#clip0_796_492)">
<path d="M0.862596 22.508C-0.913135 19.4324 0.140663 15.4996 3.21632 13.7238L25.4922 0.862841C28.5679 -0.912891 32.5007 0.140907 34.2764 3.21656L47.1374 25.4924C48.9131 28.5681 47.8593 32.5009 44.7837 34.2767L22.5078 47.1376C19.4321 48.9134 15.4993 47.8596 13.7236 44.7839L0.862596 22.508Z" fill="#FD694C"/>
<path d="M16.5 11.0166L24 15.3499L31.5 11.0166M16.5 36.9833V28.3333L9 23.9999M39 23.9999L31.5 28.3333V36.9833M9.45 15.5999L24 24.0166L38.55 15.5999M24 40.7999V23.9999M39 30.6666V17.3333C38.9994 16.7487 38.8451 16.1746 38.5526 15.6685C38.26 15.1624 37.8396 14.7422 37.3333 14.4499L25.6667 7.78325C25.1599 7.49069 24.5851 7.33667 24 7.33667C23.4149 7.33667 22.8401 7.49069 22.3333 7.78325L10.6667 14.4499C10.1604 14.7422 9.73997 15.1624 9.44744 15.6685C9.1549 16.1746 9.0006 16.7487 9 17.3333V30.6666C9.0006 31.2511 9.1549 31.8252 9.44744 32.3313C9.73997 32.8374 10.1604 33.2576 10.6667 33.5499L22.3333 40.2166C22.8401 40.5091 23.4149 40.6632 24 40.6632C24.5851 40.6632 25.1599 40.5091 25.6667 40.2166L37.3333 33.5499C37.8396 33.2576 38.26 32.8374 38.5526 32.3313C38.8451 31.8252 38.9994 31.2511 39 30.6666Z" stroke="#4D1729" stroke-width="4" stroke-linecap="round" stroke-linejoin="round"/>
</g>
<defs>
<clipPath id="clip0_796_492">
<rect width="48" height="48" fill="white"/>
</clipPath>
</defs>
</svg>
