<svg width="48" height="48" viewBox="0 0 48 48" fill="none" xmlns="http://www.w3.org/2000/svg">
<g clip-path="url(#clip0_796_485)">
<path d="M0.862596 22.508C-0.913135 19.4324 0.140663 15.4996 3.21632 13.7238L25.4922 0.862841C28.5679 -0.912891 32.5007 0.140907 34.2764 3.21656L47.1374 25.4924C48.9131 28.5681 47.8593 32.5009 44.7837 34.2767L22.5078 47.1376C19.4321 48.9134 15.4993 47.8596 13.7236 44.7839L0.862596 22.508Z" fill="#FD694C"/>
<path d="M39 12.3333C39 15.0947 32.2843 17.3333 24 17.3333C15.7157 17.3333 9 15.0947 9 12.3333M39 12.3333C39 9.57183 32.2843 7.33325 24 7.33325C15.7157 7.33325 9 9.57183 9 12.3333M39 12.3333V35.6666C39 36.9927 37.4196 38.2644 34.6066 39.2021C31.7936 40.1398 27.9782 40.6666 24 40.6666C20.0218 40.6666 16.2064 40.1398 13.3934 39.2021C10.5804 38.2644 9 36.9927 9 35.6666V12.3333M9 23.9999C9 25.326 10.5804 26.5978 13.3934 27.5355C16.2064 28.4731 20.0218 28.9999 24 28.9999C27.9782 28.9999 31.7936 28.4731 34.6066 27.5355C37.4196 26.5978 39 25.326 39 23.9999" stroke="#4D1729" stroke-width="4" stroke-linecap="round" stroke-linejoin="round"/>
</g>
<defs>
<clipPath id="clip0_796_485">
<rect width="48" height="48" fill="white"/>
</clipPath>
</defs>
</svg>
