<svg width="48" height="48" viewBox="0 0 48 48" fill="none" xmlns="http://www.w3.org/2000/svg">
<g clip-path="url(#clip0_796_499)">
<path d="M0.862596 22.508C-0.913135 19.4324 0.140663 15.4996 3.21632 13.7238L25.4922 0.862841C28.5679 -0.912891 32.5007 0.140907 34.2764 3.21656L47.1374 25.4924C48.9131 28.5681 47.8593 32.5009 44.7837 34.2767L22.5078 47.1376C19.4321 48.9134 15.4993 47.8596 13.7236 44.7839L0.862596 22.508Z" fill="#FD694C"/>
<path d="M24 33.9999H24.0166M15.6666 7.33325H32.3333C34.1743 7.33325 35.6666 8.82564 35.6666 10.6666V37.3333C35.6666 39.1742 34.1743 40.6666 32.3333 40.6666H15.6666C13.8257 40.6666 12.3333 39.1742 12.3333 37.3333V10.6666C12.3333 8.82564 13.8257 7.33325 15.6666 7.33325Z" stroke="#4D1729" stroke-width="4" stroke-linecap="round" stroke-linejoin="round"/>
</g>
<defs>
<clipPath id="clip0_796_499">
<rect width="48" height="48" fill="white"/>
</clipPath>
</defs>
</svg>
