<svg width="172" height="137" viewBox="0 0 172 137" fill="none" xmlns="http://www.w3.org/2000/svg">
<path fill-rule="evenodd" clip-rule="evenodd" d="M163.218 128.697C165.405 128.7 167.509 129.537 169.099 131.038C170.689 132.54 171.646 134.591 171.774 136.774C171.902 138.957 171.192 141.107 169.788 142.784C168.385 144.461 166.394 145.539 164.222 145.797L163.218 145.857H8.78162C6.5948 145.855 4.49143 145.017 2.90128 143.516C1.31113 142.015 0.354219 139.963 0.226061 137.78C0.0979035 135.597 0.808174 133.447 2.21175 131.77C3.61532 130.093 5.60626 129.016 7.77778 128.757L8.78162 128.697H163.218ZM146.059 8.60282e-07C150.388 -0.00136916 154.558 1.63365 157.732 4.57731C160.906 7.52096 162.851 11.5557 163.176 15.8727L163.218 17.1596V102.958C163.22 107.287 161.585 111.457 158.641 114.631C155.697 117.805 151.663 119.75 147.346 120.075L146.059 120.118H25.9413C21.6121 120.119 17.4424 118.484 14.268 115.54C11.0936 112.597 9.14921 108.562 8.82452 104.245L8.78162 102.958V17.1596C8.78025 12.8305 10.4153 8.66076 13.3589 5.48638C16.3026 2.31201 20.3373 0.367589 24.6543 0.0429009L25.9413 8.60282e-07H146.059ZM146.059 17.1596H25.9413V102.958H146.059V17.1596Z" fill="#111111"/>
</svg>
