<svg width="160" height="137" viewBox="0 0 160 137" fill="none" xmlns="http://www.w3.org/2000/svg">
<path fill-rule="evenodd" clip-rule="evenodd" d="M55.9951 0.00199662C47.5064 0.00199662 39.3654 3.37411 33.363 9.3765C27.3606 15.3789 23.9885 23.5199 23.9885 32.0086V41.0184C17.1211 42.7983 11.0393 46.8082 6.69751 52.4187C2.35577 58.0292 0 64.9226 0 72.0168C0 79.111 2.35577 86.0045 6.69751 91.6149C11.0393 97.2254 17.1211 101.235 23.9885 103.015V112.025C23.9881 118.526 25.9676 124.874 29.6635 130.222C33.3595 135.571 38.5967 139.667 44.6781 141.966C50.7595 144.265 57.3968 144.657 63.7067 143.091C70.0165 141.524 75.6997 138.073 80 133.197C84.3003 138.073 89.9835 141.524 96.2933 143.091C102.603 144.657 109.24 144.265 115.322 141.966C121.403 139.667 126.64 135.571 130.336 130.222C134.032 124.874 136.012 118.526 136.012 112.025V103.015C142.879 101.235 148.961 97.2254 153.302 91.6149C157.644 86.0045 160 79.111 160 72.0168C160 64.9226 157.644 58.0292 153.302 52.4187C148.961 46.8082 142.879 42.7983 136.012 41.0184V32.0086C136.012 25.5072 134.032 19.1598 130.336 13.8112C126.64 8.46256 121.403 4.3663 115.322 2.06752C109.24 -0.231252 102.603 -0.623528 96.2933 0.942902C89.9835 2.50933 84.3003 5.96018 80 10.8362C76.9963 7.43087 73.3023 4.70363 69.1635 2.83566C65.0247 0.96769 60.5359 0.00174763 55.9951 0.00199662ZM120.008 48.0119V32.0086C120.008 27.7642 118.322 23.6937 115.321 20.6925C112.32 17.6913 108.249 16.0053 104.005 16.0053C99.7606 16.0053 95.6901 17.6913 92.6889 20.6925C89.6877 23.6937 88.0016 27.7642 88.0016 32.0086V68.296C92.868 65.4894 98.3873 64.013 104.005 64.0152C106.127 64.0152 108.162 64.8582 109.663 66.3588C111.164 67.8594 112.007 69.8946 112.007 72.0168C112.007 74.139 111.164 76.1742 109.663 77.6748C108.162 79.1754 106.127 80.0184 104.005 80.0184C99.7606 80.0184 95.6901 81.7045 92.6889 84.7057C89.6877 87.7069 88.0016 91.7774 88.0016 96.0217V112.025C88.0016 116.269 89.6877 120.34 92.6889 123.341C95.6901 126.342 99.7606 128.028 104.005 128.028C108.249 128.028 112.32 126.342 115.321 123.341C118.322 120.34 120.008 116.269 120.008 112.025V103.015C119.109 102.782 118.22 102.51 117.344 102.199C115.342 101.492 113.704 100.02 112.789 98.1049C111.873 96.1901 111.756 93.9901 112.463 91.9889C113.169 89.9877 114.642 88.3492 116.557 87.4338C118.472 86.5185 120.672 86.4012 122.673 87.1079C124.87 87.8832 127.21 88.1695 129.529 87.9468C131.848 87.724 134.09 86.9976 136.099 85.8183C138.109 84.639 139.836 83.0352 141.161 81.1189C142.486 79.2027 143.377 77.0202 143.771 74.724C144.165 72.4279 144.053 70.0733 143.443 67.8249C142.833 65.5765 141.739 63.4884 140.238 61.7066C138.737 59.9247 136.865 58.4921 134.753 57.5088C132.641 56.5255 130.34 56.0152 128.01 56.0135C125.888 56.0135 123.852 55.1705 122.352 53.6699C120.851 52.1693 120.008 50.134 120.008 48.0119ZM55.9951 80.0184C60.2394 80.0184 64.3099 81.7045 67.3111 84.7057C70.3123 87.7069 71.9984 91.7774 71.9984 96.0217V112.025C71.9984 116.269 70.3123 120.34 67.3111 123.341C64.3099 126.342 60.2394 128.028 55.9951 128.028C51.7507 128.028 47.6802 126.342 44.679 123.341C41.6778 120.34 39.9918 116.269 39.9918 112.025V103.015C40.8986 102.78 41.7868 102.508 42.6563 102.199C44.6575 101.492 46.296 100.02 47.2114 98.1049C48.1268 96.1901 48.244 93.9901 47.5373 91.9889C46.8306 89.9877 45.3579 88.3492 43.4432 87.4338C41.5284 86.5185 39.3284 86.4012 37.3272 87.1079C35.1303 87.8832 32.7905 88.1695 30.4714 87.9468C28.1523 87.724 25.9098 86.9976 23.9006 85.8183C21.8913 84.639 20.1638 83.0352 18.8388 81.1189C17.5137 79.2027 16.6229 77.0202 16.2288 74.724C15.8347 72.4279 15.9467 70.0733 16.5569 67.8249C17.1672 65.5765 18.261 63.4884 19.762 61.7066C21.263 59.9247 23.1349 58.4921 25.247 57.5088C27.3591 56.5255 29.6604 56.0152 31.9901 56.0135C34.1123 56.0135 36.1475 55.1705 37.6481 53.6699C39.1487 52.1693 39.9918 50.134 39.9918 48.0119V32.0086C39.9918 27.7642 41.6778 23.6937 44.679 20.6925C47.6802 17.6913 51.7507 16.0053 55.9951 16.0053C60.2394 16.0053 64.3099 17.6913 67.3111 20.6925C70.3123 23.6937 71.9984 27.7642 71.9984 32.0086V68.296C67.132 65.4894 61.6127 64.013 55.9951 64.0152C53.8729 64.0152 51.8376 64.8582 50.337 66.3588C48.8364 67.8594 47.9934 69.8946 47.9934 72.0168C47.9934 74.139 48.8364 76.1742 50.337 77.6748C51.8376 79.1754 53.8729 80.0184 55.9951 80.0184Z" fill="#111111"/>
</svg>
