<svg width="160" height="146" viewBox="0 0 160 146" fill="none" xmlns="http://www.w3.org/2000/svg">
<path fill-rule="evenodd" clip-rule="evenodd" d="M64.0709 5.59052C68.4776 2.11071 73.7298 0.322021 79.974 0.322021C86.2181 0.322021 91.4541 2.11071 95.8445 5.57426C99.9666 8.82642 102.861 13.2168 105.235 17.4609C106.26 19.3038 107.235 21.1575 108.162 23.0221C110.043 22.6102 111.932 22.2307 113.829 21.8838C118.675 21.0301 123.943 20.4773 129.114 21.6074C134.643 22.8107 139.375 25.762 143.342 30.6728C147.562 35.8681 149.416 41.4131 149.245 47.3564C149.082 52.8444 147.196 58.1292 145.164 62.9261C144.573 64.3245 143.958 65.7257 143.318 67.1295C144.798 68.3545 146.253 69.6012 147.684 70.8695C151.408 74.1867 155.164 78.0242 157.522 82.8212C160.05 87.9433 160.684 93.5696 159.237 99.8056C157.871 105.733 155.058 110.375 150.839 113.855C146.855 117.14 142.074 119.001 137.513 120.359C135.464 120.977 133.187 121.563 130.846 122.14C130.805 124.742 130.74 127.294 130.578 129.636C130.244 134.278 129.456 139.222 127.122 143.734C124.667 148.499 120.821 152.173 115.479 154.775C109.601 157.645 103.885 158.255 98.2267 156.857C92.9664 155.556 88.3158 152.645 84.1774 149.677C82.779 148.675 81.3914 147.645 80.0146 146.588C78.6379 147.639 77.2584 148.664 75.8763 149.661C71.7298 152.629 67.0792 155.556 61.8188 156.865C56.1519 158.271 50.4362 157.661 44.5417 154.791C39.2163 152.19 35.3706 148.531 32.9152 143.775C30.5818 139.271 29.785 134.344 29.4436 129.701C29.2764 127.192 29.187 124.679 29.1752 122.164C26.9469 121.634 24.732 121.048 22.5327 120.408C17.9634 119.042 13.1828 117.197 9.18259 113.904C4.95479 110.424 2.13354 105.773 0.759501 99.8381C-0.67958 93.6102 -0.0535389 88.0002 2.46689 82.87C4.80844 78.0812 8.56468 74.2436 12.2803 70.9183C13.7112 69.6445 15.1747 68.3924 16.6707 67.162C16.0393 65.779 15.424 64.3886 14.8251 62.9911C12.7925 58.1942 10.89 52.9094 10.7192 47.4052C10.5485 41.47 12.4022 35.9088 16.6138 30.6972C20.5814 25.8027 25.3133 22.8432 30.8339 21.6399C35.9967 20.5017 41.2652 21.0545 46.1109 21.9082C48.008 22.2443 49.9051 22.621 51.8022 23.0384C52.7236 21.1738 53.6911 19.3309 54.7047 17.5097C57.0788 13.2412 59.9651 8.85894 64.0872 5.59052M44.0132 38.0552L43.2815 37.917C39.0212 37.169 36.2975 37.0877 34.3055 37.5267C32.6713 37.8845 31.0778 38.6812 29.2566 40.9334C27.3459 43.2912 26.9231 45.0799 26.98 46.9255C27.0451 49.1207 27.8256 51.9257 29.5818 56.1372C32.5992 53.3278 35.4498 50.3443 38.1187 47.2019C40.4115 44.0067 42.3302 40.974 44.0132 38.0552ZM36.5333 71.7476C41.6171 67.3464 46.3649 62.5714 50.7371 57.4625L50.9322 57.2186L51.1192 56.9746C54.8998 51.7224 58.0138 46.4295 60.6318 41.5675C66.2905 42.6489 72.681 43.6001 79.535 43.9416L79.9333 43.9579L80.3317 43.9416C87.2263 43.6083 93.6412 42.6407 99.3243 41.5594C101.926 46.397 105.016 51.6492 108.772 56.8608L108.951 57.1129L109.154 57.3568C113.549 62.4991 118.327 67.3016 123.447 71.7232C120.263 79.1644 117.781 86.8866 116.032 94.7891L115.967 95.09L115.927 95.3989C115.303 100.032 114.915 104.694 114.764 109.367C110.113 110.619 105.024 112.196 99.617 114.351L99.3243 114.465L99.0479 114.603C91.6492 118.229 85.34 122.343 79.9984 126.197C74.0237 121.819 67.6861 117.959 61.0545 114.66L60.77 114.522L60.4854 114.408C55.5002 112.438 50.4047 110.761 45.2247 109.383C45.0749 104.752 44.6923 100.13 44.0783 95.5371L44.0376 95.2363L43.9726 94.9355C42.2207 86.9903 39.7354 79.227 36.5333 71.7476ZM23.4352 82.7561L23.1018 83.057C19.7765 86.0164 17.9797 88.1547 17.0528 90.0328C16.2967 91.5776 15.939 93.3338 16.5975 96.1794C17.2317 98.9356 18.2724 100.334 19.5082 101.35C20.9798 102.57 23.2807 103.668 27.167 104.822L28.7281 105.269C28.564 102.85 28.3227 100.437 28.0045 98.0331C26.8682 92.833 25.3408 87.7262 23.4352 82.7561ZM45.5336 126.384C45.5661 127.116 45.6068 127.826 45.6556 128.514C45.932 132.335 46.5093 134.693 47.3467 136.303C48.054 137.669 49.1842 138.97 51.6639 140.181C54.347 141.482 56.1682 141.515 57.8918 141.075C60.0057 140.555 62.5749 139.181 66.3474 136.482C62.4473 133.85 58.3757 131.481 54.16 129.392C51.3259 128.274 48.4482 127.271 45.5336 126.384ZM93.6656 136.474C97.4381 139.173 100.007 140.539 102.121 141.067C103.845 141.498 105.674 141.466 108.341 140.165C110.829 138.945 111.959 137.644 112.666 136.279C113.504 134.661 114.073 132.303 114.349 128.473C114.398 127.785 114.436 127.083 114.463 126.368C111.699 127.213 108.853 128.181 105.926 129.343C101.292 131.628 97.2917 134.043 93.6656 136.474ZM131.261 105.245L132.846 104.79C136.716 103.627 139.009 102.521 140.489 101.31C141.708 100.293 142.757 98.895 143.391 96.1469C144.042 93.2931 143.684 91.5288 142.928 89.9922C142.001 88.1141 140.196 85.9758 136.854 83L136.545 82.7236C134.65 87.6624 133.128 92.7364 131.992 97.9031C131.667 100.423 131.423 102.871 131.261 105.245ZM130.382 56.1047C132.139 51.8931 132.919 49.0963 132.984 46.8929C133.041 45.0473 132.61 43.2505 130.708 40.9008C128.878 38.6487 127.293 37.8519 125.651 37.4942C123.659 37.0633 120.935 37.1446 116.658 37.9007L115.943 38.0308C117.618 40.9252 119.52 43.9335 121.781 47.1043C124.707 50.5435 127.577 53.4786 130.382 56.1047ZM91.6005 26.4287L91.0313 25.388C88.9581 21.6806 87.3239 19.5748 85.7547 18.3309C84.4538 17.3064 82.844 16.5828 79.9659 16.5828C77.0877 16.5828 75.4779 17.3146 74.177 18.339C72.6078 19.5829 70.9736 21.6968 68.9004 25.4124L68.3475 26.4369C71.9086 27.006 75.7218 27.4613 79.9333 27.6808C84.1774 27.4613 88.0149 27.006 91.6005 26.4287Z" fill="#111111"/>
</svg>
