<svg width="48" height="48" viewBox="0 0 48 48" fill="none" xmlns="http://www.w3.org/2000/svg">
<g clip-path="url(#clip0_729_287)">
<path fill-rule="evenodd" clip-rule="evenodd" d="M4 24C4 12.954 12.954 4 24 4C35.046 4 44 12.954 44 24C44 35.046 35.046 44 24 44C12.954 44 4 35.046 4 24ZM26 14C26 13.4696 25.7893 12.9609 25.4142 12.5858C25.0391 12.2107 24.5304 12 24 12C23.4696 12 22.9609 12.2107 22.5858 12.5858C22.2107 12.9609 22 13.4696 22 14V16H20C18.6739 16 17.4021 16.5268 16.4645 17.4645C15.5268 18.4021 15 19.6739 15 21C15 22.3261 15.5268 23.5979 16.4645 24.5355C17.4021 25.4732 18.6739 26 20 26H28C28.2652 26 28.5196 26.1054 28.7071 26.2929C28.8946 26.4804 29 26.7348 29 27C29 27.2652 28.8946 27.5196 28.7071 27.7071C28.5196 27.8946 28.2652 28 28 28H18C17.4696 28 16.9609 28.2107 16.5858 28.5858C16.2107 28.9609 16 29.4696 16 30C16 30.5304 16.2107 31.0391 16.5858 31.4142C16.9609 31.7893 17.4696 32 18 32H22V34C22 34.5304 22.2107 35.0391 22.5858 35.4142C22.9609 35.7893 23.4696 36 24 36C24.5304 36 25.0391 35.7893 25.4142 35.4142C25.7893 35.0391 26 34.5304 26 34V32H28C29.3261 32 30.5979 31.4732 31.5355 30.5355C32.4732 29.5979 33 28.3261 33 27C33 25.6739 32.4732 24.4021 31.5355 23.4645C30.5979 22.5268 29.3261 22 28 22H20C19.7348 22 19.4804 21.8946 19.2929 21.7071C19.1054 21.5196 19 21.2652 19 21C19 20.7348 19.1054 20.4804 19.2929 20.2929C19.4804 20.1054 19.7348 20 20 20H30C30.5304 20 31.0391 19.7893 31.4142 19.4142C31.7893 19.0391 32 18.5304 32 18C32 17.4696 31.7893 16.9609 31.4142 16.5858C31.0391 16.2107 30.5304 16 30 16H26V14Z" fill="#111111"/>
</g>
<defs>
<clipPath id="clip0_729_287">
<rect width="48" height="48" fill="white"/>
</clipPath>
</defs>
</svg>
