<svg width="40" height="42" viewBox="0 0 40 42" fill="none" xmlns="http://www.w3.org/2000/svg">
<path fill-rule="evenodd" clip-rule="evenodd" d="M26 1.07721e-05C28.1217 1.07721e-05 30.1565 0.842865 31.6568 2.34316C33.1571 3.84345 34 5.87828 34 8.00001V10.252C36.0053 10.7878 37.7241 12.0817 38.7937 13.8606C39.8632 15.6395 40.1998 17.7644 39.7325 19.7868C39.2651 21.8092 38.0304 23.571 36.2889 24.7003C34.5473 25.8297 32.4351 26.2383 30.398 25.84C30.1406 25.7877 29.8754 25.7867 29.6176 25.8369C29.3598 25.8871 29.1144 25.9876 28.8955 26.1327C28.6765 26.2777 28.4883 26.4645 28.3415 26.6822C28.1947 26.9 28.0922 27.1446 28.04 27.402C27.9877 27.6594 27.9867 27.9246 28.0369 28.1824C28.0871 28.4402 28.1876 28.6856 28.3326 28.9045C28.4777 29.1235 28.6644 29.3117 28.8822 29.4585C29.1 29.6053 29.3446 29.7077 29.602 29.76C30.9783 30.0404 32.3931 30.0769 33.782 29.868C33.4392 31.2919 32.7123 32.5945 31.6805 33.6338C30.6487 34.6732 29.3515 35.4095 27.9301 35.7627C26.5088 36.1158 25.0178 36.0721 23.6195 35.6365C22.2212 35.2009 20.9693 34.3899 20 33.292C19.0306 34.3894 17.7788 35.1998 16.3808 35.6351C14.9828 36.0704 13.4921 36.1139 12.0711 35.7608C10.6502 35.4077 9.35323 34.6716 8.32156 33.6326C7.28988 32.5936 6.56298 31.2915 6.21998 29.868C7.60824 30.0767 9.02235 30.0401 10.398 29.76C10.6554 29.7077 10.8999 29.6053 11.1177 29.4585C11.3355 29.3117 11.5223 29.1235 11.6673 28.9045C11.8124 28.6856 11.9129 28.4402 11.9631 28.1824C12.0133 27.9246 12.0122 27.6594 11.96 27.402C11.9077 27.1446 11.8053 26.9 11.6585 26.6822C11.5117 26.4645 11.3234 26.2777 11.1045 26.1327C10.8855 25.9876 10.6401 25.8871 10.3823 25.8369C10.1245 25.7867 9.85937 25.7877 9.60198 25.84C8.40994 26.0837 7.17803 26.0522 5.99998 25.748C4.2835 25.3031 2.76334 24.3009 1.67812 22.8985C0.592911 21.4962 0.00408936 19.7732 0.00408936 18C0.00408936 16.2268 0.592911 14.5038 1.67812 13.1015C2.76334 11.6992 4.2835 10.6969 5.99998 10.252V8.00001C5.99988 6.375 6.49465 4.78848 7.41845 3.4516C8.34225 2.11472 9.65128 1.09086 11.1713 0.516287C12.6914 -0.0582895 14.3503 -0.156338 15.9275 0.235189C17.5046 0.626716 18.9251 1.48925 20 2.70801C20.7508 1.85685 21.6741 1.17518 22.7085 0.708281C23.743 0.241384 24.865 -5.14627e-05 26 1.07721e-05ZM20 6.00001C19.5101 6.00008 19.0373 6.17992 18.6712 6.50544C18.3052 6.83096 18.0713 7.27951 18.014 7.76601L18 8.00001V17.07C16.7836 16.3685 15.4041 15.9995 14 16C13.4695 16 12.9608 16.2107 12.5858 16.5858C12.2107 16.9609 12 17.4696 12 18C12 18.5304 12.2107 19.0392 12.5858 19.4142C12.9608 19.7893 13.4695 20 14 20C15.0091 19.9997 15.9811 20.3808 16.7211 21.067C17.461 21.7532 17.9143 22.6937 17.99 23.7L18 24V28C18.0005 28.5098 18.1957 29.0001 18.5457 29.3707C18.8956 29.7414 19.3739 29.9645 19.8828 29.9944C20.3916 30.0242 20.8927 29.8587 21.2836 29.5315C21.6745 29.2043 21.9258 28.7402 21.986 28.234L22 28V23.988C22.0032 22.9292 22.426 21.9149 23.1758 21.1673C23.9256 20.4198 24.9412 20 26 20C26.5304 20 27.0391 19.7893 27.4142 19.4142C27.7893 19.0392 28 18.5304 28 18C28 17.4696 27.7893 16.9609 27.4142 16.5858C27.0391 16.2107 26.5304 16 26 16C24.7687 15.9991 23.5538 16.2825 22.45 16.828L22 17.07V8.00001C22 7.46958 21.7893 6.96087 21.4142 6.5858C21.0391 6.21072 20.5304 6.00001 20 6.00001Z" fill="white"/>
</svg>
