<svg width="48" height="49" viewBox="0 0 48 49" fill="none" xmlns="http://www.w3.org/2000/svg">
<path fill-rule="evenodd" clip-rule="evenodd" d="M16.1681 5.53325C16.4921 4.80325 17.2141 4.33325 18.0141 4.33325H33.9681C35.4681 4.33325 36.4461 5.91325 35.7741 7.25725L31.2361 16.3333H37.9521C39.7521 16.3333 40.6521 18.5093 39.3801 19.7813L15.4741 43.6873C13.9661 45.1953 11.4541 43.6432 12.1301 41.6213L17.2261 26.3333H10.0301C9.69355 26.3332 9.36237 26.2492 9.06661 26.0886C8.77085 25.9281 8.51987 25.6963 8.33648 25.4141C8.15308 25.132 8.04308 24.8085 8.01646 24.473C7.98984 24.1376 8.04745 23.8008 8.18406 23.4933L16.1681 5.53325Z" fill="#111111"/>
</svg>
