<svg width="48" height="49" viewBox="0 0 48 49" fill="none" xmlns="http://www.w3.org/2000/svg">
<path d="M24 4.66675C24.4898 4.66681 24.9627 4.84666 25.3287 5.17218C25.6948 5.4977 25.9287 5.94625 25.986 6.43275L26 6.66675V6.77675C29.9647 7.22125 33.6697 8.96962 36.5333 11.7475C39.3969 14.5253 41.2571 18.1754 41.822 22.1247L41.89 22.6667H42C42.5097 22.6673 43 22.8625 43.3707 23.2124C43.7414 23.5624 43.9645 24.0407 43.9943 24.5495C44.0242 25.0584 43.8586 25.5595 43.5315 25.9504C43.2043 26.3413 42.7402 26.5925 42.234 26.6527L42 26.6667H41.89C41.4455 30.6315 39.6971 34.3364 36.9193 37.2001C34.1414 40.0637 30.4914 41.9239 26.542 42.4887L26 42.5567V42.6667C25.9994 43.1765 25.8042 43.6668 25.4543 44.0375C25.1043 44.4082 24.6261 44.6312 24.1172 44.6611C23.6083 44.691 23.1072 44.5254 22.7163 44.1982C22.3254 43.871 22.0742 43.4069 22.014 42.9007L22 42.6667V42.5567C18.0352 42.1122 14.3303 40.3639 11.4667 37.586C8.60305 34.8082 6.74283 31.1581 6.17798 27.2087L6.10998 26.6667H5.99998C5.49022 26.6662 4.99992 26.471 4.62924 26.1211C4.25857 25.7711 4.03551 25.2928 4.00564 24.784C3.97576 24.2751 4.14133 23.774 4.46851 23.3831C4.79569 22.9922 5.25979 22.741 5.76598 22.6807L5.99998 22.6667H6.10998C6.55448 18.702 8.30285 14.9971 11.0807 12.1334C13.8585 9.26982 17.5086 7.4096 21.458 6.84475L22 6.77675V6.66675C22 6.13632 22.2107 5.62761 22.5858 5.25253C22.9608 4.87746 23.4695 4.66675 24 4.66675ZM24 14.6667C21.3478 14.6667 18.8043 15.7203 16.9289 17.5957C15.0536 19.471 14 22.0146 14 24.6667C14 27.3189 15.0536 29.8625 16.9289 31.7378C18.8043 33.6132 21.3478 34.6667 24 34.6667C26.6521 34.6667 29.1957 33.6132 31.071 31.7378C32.9464 29.8625 34 27.3189 34 24.6667C34 22.0146 32.9464 19.471 31.071 17.5957C29.1957 15.7203 26.6521 14.6667 24 14.6667ZM24 18.6667C25.5913 18.6667 27.1174 19.2989 28.2426 20.4241C29.3678 21.5493 30 23.0754 30 24.6667C30 26.258 29.3678 27.7842 28.2426 28.9094C27.1174 30.0346 25.5913 30.6667 24 30.6667C22.4087 30.6667 20.8826 30.0346 19.7573 28.9094C18.6321 27.7842 18 26.258 18 24.6667C18 23.0754 18.6321 21.5493 19.7573 20.4241C20.8826 19.2989 22.4087 18.6667 24 18.6667Z" fill="#111111"/>
</svg>
