<svg width="48" height="49" viewBox="0 0 48 49" fill="none" xmlns="http://www.w3.org/2000/svg">
<path fill-rule="evenodd" clip-rule="evenodd" d="M22.596 4.72325C23.5012 4.38392 24.4988 4.38392 25.404 4.72325L39.404 9.97325C40.1666 10.2591 40.8238 10.771 41.2877 11.4404C41.7516 12.1098 42.0001 12.9048 42 13.7192V24.4452C42.0001 27.7881 41.0693 31.0649 39.3119 33.9086C37.5545 36.7522 35.0399 39.0503 32.05 40.5452L25.342 43.8993C24.9253 44.1077 24.4659 44.2161 24 44.2161C23.5341 44.2161 23.0747 44.1077 22.658 43.8993L15.95 40.5452C12.9601 39.0503 10.4455 36.7522 8.68814 33.9086C6.93074 31.0649 5.99993 27.7881 6 24.4452V13.7192C5.9999 12.9048 6.24841 12.1098 6.71231 11.4404C7.1762 10.771 7.83339 10.2591 8.596 9.97325L22.596 4.72325ZM24 8.46925L10 13.7192V24.4452C10.0005 27.045 10.7248 29.5932 12.0918 31.8045C13.4589 34.0158 15.4146 35.8028 17.74 36.9652L24 40.0992V8.46925Z" fill="#111111"/>
</svg>
